<mxfile host="Electron" modified="2024-06-25T16:52:41.683Z" agent="Mozilla/5.0 (Windows NT 10.0; Win64; x64) AppleWebKit/537.36 (KHTML, like Gecko) draw.io/24.2.5 Chrome/120.0.6099.109 Electron/28.1.0 Safari/537.36" etag="YxO4GvRPHXbRwlhAM3BN" version="24.2.5" type="device">
  <diagram name="Page-1" id="c9db0220-8083-56f3-ca83-edcdcd058819">
    <mxGraphModel dx="1104" dy="516" grid="1" gridSize="10" guides="1" tooltips="1" connect="1" arrows="1" fold="1" page="1" pageScale="1.5" pageWidth="826" pageHeight="1169" background="none" math="0" shadow="0">
      <root>
        <mxCell id="0" style=";html=1;" />
        <mxCell id="1" style=";html=1;" parent="0" />
        <mxCell id="3d76a8aef4d5c911-28" value="Message Type" style="html=1;shadow=0;dashed=0;shape=mxgraph.bootstrap.rect;strokeColor=none;fillColor=none;fontColor=#999999;align=left;spacingLeft=5;whiteSpace=wrap;rounded=0;" parent="1" vertex="1">
          <mxGeometry x="40" y="570" width="200" height="20" as="geometry" />
        </mxCell>
        <mxCell id="3d76a8aef4d5c911-29" value="Email + Push" style="html=1;shadow=0;dashed=0;shape=mxgraph.bootstrap.rrect;rSize=5;strokeColor=#dddddd;align=left;spacingLeft=10;fontSize=16;whiteSpace=wrap;rounded=0;" parent="1" vertex="1">
          <mxGeometry x="40" y="590" width="390" height="40" as="geometry" />
        </mxCell>
        <mxCell id="3d76a8aef4d5c911-30" value="" style="shape=triangle;strokeColor=none;fillColor=#000000;direction=south;rounded=0;shadow=1;fontSize=12;fontColor=#000000;align=center;html=1;" parent="1" vertex="1">
          <mxGeometry x="410" y="607" width="10" height="5" as="geometry" />
        </mxCell>
        <mxCell id="3d76a8aef4d5c911-31" value="Tap target" style="html=1;shadow=0;dashed=0;shape=mxgraph.bootstrap.rect;strokeColor=none;fillColor=none;fontColor=#999999;align=left;spacingLeft=5;whiteSpace=wrap;rounded=0;" parent="1" vertex="1">
          <mxGeometry x="450" y="570" width="200" height="20" as="geometry" />
        </mxCell>
        <mxCell id="3d76a8aef4d5c911-32" value="Profile Screen" style="html=1;shadow=0;dashed=0;shape=mxgraph.bootstrap.rrect;rSize=5;strokeColor=#dddddd;align=left;spacingLeft=10;fontSize=16;whiteSpace=wrap;rounded=0;" parent="1" vertex="1">
          <mxGeometry x="450" y="590" width="390" height="40" as="geometry" />
        </mxCell>
        <mxCell id="3d76a8aef4d5c911-33" value="" style="shape=triangle;strokeColor=none;fillColor=#000000;direction=south;rounded=0;shadow=1;fontSize=12;fontColor=#000000;align=center;html=1;" parent="1" vertex="1">
          <mxGeometry x="820" y="607" width="10" height="5" as="geometry" />
        </mxCell>
        <mxCell id="3d76a8aef4d5c911-34" value="Send to Group" style="html=1;shadow=0;dashed=0;shape=mxgraph.bootstrap.rect;strokeColor=none;fillColor=none;fontColor=#999999;align=left;spacingLeft=5;whiteSpace=wrap;rounded=0;" parent="1" vertex="1">
          <mxGeometry x="40" y="650" width="200" height="20" as="geometry" />
        </mxCell>
        <mxCell id="3d76a8aef4d5c911-35" value="Top Management" style="html=1;shadow=0;dashed=0;shape=mxgraph.bootstrap.checkbox;fontSize=12;strokeColor=#999999;align=left;labelPosition=right;spacingLeft=5;rounded=0;" parent="1" vertex="1">
          <mxGeometry x="50" y="673" width="14" height="14" as="geometry" />
        </mxCell>
        <mxCell id="3d76a8aef4d5c911-36" value="Marketing Department" style="html=1;shadow=0;dashed=0;shape=mxgraph.bootstrap.rrect;fontSize=12;rSize=3;strokeColor=#999999;align=left;labelPosition=right;spacingLeft=5;rounded=0;" parent="1" vertex="1">
          <mxGeometry x="50" y="693" width="14" height="14" as="geometry" />
        </mxCell>
        <mxCell id="3d76a8aef4d5c911-37" value="Design Department" style="html=1;shadow=0;dashed=0;shape=mxgraph.bootstrap.checkbox;fontSize=12;strokeColor=#999999;align=left;labelPosition=right;spacingLeft=5;rounded=0;" parent="1" vertex="1">
          <mxGeometry x="50" y="713" width="14" height="14" as="geometry" />
        </mxCell>
        <mxCell id="3d76a8aef4d5c911-38" value="Financial Department" style="html=1;shadow=0;dashed=0;shape=mxgraph.bootstrap.rrect;fontSize=12;rSize=3;strokeColor=#999999;align=left;labelPosition=right;spacingLeft=5;rounded=0;" parent="1" vertex="1">
          <mxGeometry x="50" y="733" width="14" height="14" as="geometry" />
        </mxCell>
        <mxCell id="3d76a8aef4d5c911-39" value="Supply Department" style="html=1;shadow=0;dashed=0;shape=mxgraph.bootstrap.rrect;fontSize=12;rSize=3;strokeColor=#999999;align=left;labelPosition=right;spacingLeft=5;rounded=0;" parent="1" vertex="1">
          <mxGeometry x="50" y="753" width="14" height="14" as="geometry" />
        </mxCell>
        <mxCell id="3d76a8aef4d5c911-40" value="Set Type" style="html=1;shadow=0;dashed=0;shape=mxgraph.bootstrap.rect;strokeColor=none;fillColor=none;fontColor=#999999;align=left;spacingLeft=5;whiteSpace=wrap;rounded=0;" parent="1" vertex="1">
          <mxGeometry x="450" y="650" width="200" height="20" as="geometry" />
        </mxCell>
        <mxCell id="3d76a8aef4d5c911-41" value="" style="shape=ellipse;dashed=0;strokeColor=#999999;fillColor=#ffffff;html=1;rounded=0;shadow=1;fontSize=12;fontColor=#000000;align=center;" parent="1" vertex="1">
          <mxGeometry x="460" y="673" width="14" height="14" as="geometry" />
        </mxCell>
        <mxCell id="3d76a8aef4d5c911-42" value="News" style="html=1;shadow=0;dashed=0;shape=mxgraph.bootstrap.rrect;align=center;rSize=3;strokeColor=none;fillColor=#58B957;fontColor=#ffffff;fontStyle=1;fontSize=10;whiteSpace=wrap;rounded=0;" parent="1" vertex="1">
          <mxGeometry x="480" y="673" width="40" height="14" as="geometry" />
        </mxCell>
        <mxCell id="3d76a8aef4d5c911-43" value="" style="html=1;shadow=0;dashed=0;shape=mxgraph.bootstrap.radioButton;strokeColor=#999999;fillColor=#ffffff;rounded=0;fontSize=12;fontColor=#000000;align=center;" parent="1" vertex="1">
          <mxGeometry x="460" y="693" width="14" height="14" as="geometry" />
        </mxCell>
        <mxCell id="3d76a8aef4d5c911-44" value="Reports" style="html=1;shadow=0;dashed=0;shape=mxgraph.bootstrap.rrect;align=center;rSize=3;strokeColor=none;fillColor=#55BFE0;fontColor=#ffffff;fontStyle=1;fontSize=10;whiteSpace=wrap;rounded=0;" parent="1" vertex="1">
          <mxGeometry x="480" y="693" width="50" height="14" as="geometry" />
        </mxCell>
        <mxCell id="3d76a8aef4d5c911-45" value="" style="shape=ellipse;dashed=0;strokeColor=#999999;fillColor=#ffffff;html=1;rounded=0;shadow=1;fontSize=12;fontColor=#000000;align=center;" parent="1" vertex="1">
          <mxGeometry x="460" y="713" width="14" height="14" as="geometry" />
        </mxCell>
        <mxCell id="3d76a8aef4d5c911-46" value="Documents" style="html=1;shadow=0;dashed=0;shape=mxgraph.bootstrap.rrect;align=center;rSize=3;strokeColor=none;fillColor=#EFAC43;fontColor=#ffffff;fontStyle=1;fontSize=10;whiteSpace=wrap;rounded=0;" parent="1" vertex="1">
          <mxGeometry x="480" y="713" width="70" height="14" as="geometry" />
        </mxCell>
        <mxCell id="3d76a8aef4d5c911-47" value="" style="shape=ellipse;dashed=0;strokeColor=#999999;fillColor=#ffffff;html=1;rounded=0;shadow=1;fontSize=12;fontColor=#000000;align=center;" parent="1" vertex="1">
          <mxGeometry x="460" y="733" width="14" height="14" as="geometry" />
        </mxCell>
        <mxCell id="3d76a8aef4d5c911-48" value="Media" style="html=1;shadow=0;dashed=0;shape=mxgraph.bootstrap.rrect;align=center;rSize=3;strokeColor=none;fillColor=#3D8BCD;fontColor=#ffffff;fontStyle=1;fontSize=10;whiteSpace=wrap;rounded=0;" parent="1" vertex="1">
          <mxGeometry x="480" y="733" width="40" height="14" as="geometry" />
        </mxCell>
        <mxCell id="3d76a8aef4d5c911-49" value="" style="shape=ellipse;dashed=0;strokeColor=#999999;fillColor=#ffffff;html=1;rounded=0;shadow=1;fontSize=12;fontColor=#000000;align=center;" parent="1" vertex="1">
          <mxGeometry x="460" y="753" width="14" height="14" as="geometry" />
        </mxCell>
        <mxCell id="3d76a8aef4d5c911-50" value="Text" style="html=1;shadow=0;dashed=0;shape=mxgraph.bootstrap.rrect;align=center;rSize=3;strokeColor=none;fillColor=#999999;fontColor=#ffffff;fontStyle=1;fontSize=10;whiteSpace=wrap;rounded=0;" parent="1" vertex="1">
          <mxGeometry x="480" y="753" width="30" height="14" as="geometry" />
        </mxCell>
        <mxCell id="3d76a8aef4d5c911-51" value="Save Template" style="html=1;shadow=0;dashed=0;shape=mxgraph.bootstrap.rrect;align=center;rSize=5;strokeColor=none;fillColor=#3D8BCD;fontColor=#ffffff;fontSize=16;whiteSpace=wrap;rounded=0;" parent="1" vertex="1">
          <mxGeometry x="40" y="810" width="150" height="40" as="geometry" />
        </mxCell>
        <mxCell id="3d76a8aef4d5c911-52" value="Cancel" style="html=1;shadow=0;dashed=0;shape=mxgraph.bootstrap.rrect;align=center;rSize=5;strokeColor=#dddddd;fontSize=16;whiteSpace=wrap;rounded=0;" parent="1" vertex="1">
          <mxGeometry x="210" y="810" width="100" height="40" as="geometry" />
        </mxCell>
        <mxCell id="3d76a8aef4d5c911-53" value="Delete Template" style="html=1;shadow=0;dashed=0;shape=mxgraph.bootstrap.rrect;align=center;rSize=5;strokeColor=none;fillColor=#DB524C;fontColor=#ffffff;fontSize=16;whiteSpace=wrap;rounded=0;" parent="1" vertex="1">
          <mxGeometry x="670" y="810" width="170" height="40" as="geometry" />
        </mxCell>
        <mxCell id="2HksthL0buNQXl4Dgqd0-2" value="" style="whiteSpace=wrap;html=1;aspect=fixed;fillColor=#FFFFFF;" vertex="1" parent="1">
          <mxGeometry x="50" y="130" width="990" height="990" as="geometry" />
        </mxCell>
        <mxCell id="2HksthL0buNQXl4Dgqd0-4" value="" style="rounded=1;whiteSpace=wrap;html=1;" vertex="1" parent="1">
          <mxGeometry x="100" y="150" width="900" height="70" as="geometry" />
        </mxCell>
        <mxCell id="2HksthL0buNQXl4Dgqd0-5" value="Home" style="html=1;shadow=0;dashed=0;shape=mxgraph.bootstrap.rrect;rSize=5;strokeColor=none;strokeWidth=1;fillColor=#6C767D;fontColor=#FFFFFF;whiteSpace=wrap;align=left;verticalAlign=middle;spacingLeft=10;fontStyle=1;fontSize=18;" vertex="1" parent="1">
          <mxGeometry x="430" y="167.5" width="70" height="35" as="geometry" />
        </mxCell>
        <mxCell id="2HksthL0buNQXl4Dgqd0-6" value="Abo&lt;span style=&quot;color: rgba(0, 0, 0, 0); font-family: monospace; font-size: 0px; font-weight: 400; text-wrap: nowrap;&quot;&gt;%3CmxGraphModel%3E%3Croot%3E%3CmxCell%20id%3D%220%22%2F%3E%3CmxCell%20id%3D%221%22%20parent%3D%220%22%2F%3E%3CmxCell%20id%3D%222%22%20value%3D%22Home%22%20style%3D%22html%3D1%3Bshadow%3D0%3Bdashed%3D0%3Bshape%3Dmxgraph.bootstrap.rrect%3BrSize%3D5%3BstrokeColor%3Dnone%3BstrokeWidth%3D1%3BfillColor%3D%236C767D%3BfontColor%3D%23FFFFFF%3BwhiteSpace%3Dwrap%3Balign%3Dleft%3BverticalAlign%3Dmiddle%3BspacingLeft%3D10%3BfontStyle%3D1%3BfontSize%3D18%3B%22%20vertex%3D%221%22%20parent%3D%221%22%3E%3CmxGeometry%20x%3D%22430%22%20y%3D%2275%22%20width%3D%2270%22%20height%3D%2235%22%20as%3D%22geometry%22%2F%3E%3C%2FmxCell%3E%3C%2Froot%3E%3C%2FmxGraphModel%3E&lt;/span&gt;&lt;span style=&quot;color: rgba(0, 0, 0, 0); font-family: monospace; font-size: 0px; font-weight: 400; text-wrap: nowrap;&quot;&gt;%3CmxGraphModel%3E%3Croot%3E%3CmxCell%20id%3D%220%22%2F%3E%3CmxCell%20id%3D%221%22%20parent%3D%220%22%2F%3E%3CmxCell%20id%3D%222%22%20value%3D%22Home%22%20style%3D%22html%3D1%3Bshadow%3D0%3Bdashed%3D0%3Bshape%3Dmxgraph.bootstrap.rrect%3BrSize%3D5%3BstrokeColor%3Dnone%3BstrokeWidth%3D1%3BfillColor%3D%236C767D%3BfontColor%3D%23FFFFFF%3BwhiteSpace%3Dwrap%3Balign%3Dleft%3BverticalAlign%3Dmiddle%3BspacingLeft%3D10%3BfontStyle%3D1%3BfontSize%3D18%3B%22%20vertex%3D%221%22%20parent%3D%221%22%3E%3CmxGeometry%20x%3D%22430%22%20y%3D%2275%22%20width%3D%2270%22%20height%3D%2235%22%20as%3D%22geometry%22%2F%3E%3C%2FmxCell%3E%3C%2Froot%3E%3C%2FmxGraphModel%3E&lt;/span&gt;ut&amp;nbsp;&amp;nbsp;" style="html=1;shadow=0;dashed=0;shape=mxgraph.bootstrap.rrect;rSize=5;strokeColor=none;strokeWidth=1;fillColor=#6C767D;fontColor=#FFFFFF;whiteSpace=wrap;align=left;verticalAlign=middle;spacingLeft=10;fontStyle=1;fontSize=18;" vertex="1" parent="1">
          <mxGeometry x="540" y="167.5" width="70" height="35" as="geometry" />
        </mxCell>
        <mxCell id="2HksthL0buNQXl4Dgqd0-7" value="Contact Us" style="html=1;shadow=0;dashed=0;shape=mxgraph.bootstrap.rrect;rSize=5;strokeColor=none;strokeWidth=1;fillColor=#6C767D;fontColor=#FFFFFF;whiteSpace=wrap;align=left;verticalAlign=middle;spacingLeft=10;fontStyle=1;fontSize=18;" vertex="1" parent="1">
          <mxGeometry x="650" y="162.5" width="90" height="45" as="geometry" />
        </mxCell>
        <mxCell id="2HksthL0buNQXl4Dgqd0-8" value="Register" style="rounded=1;whiteSpace=wrap;html=1;arcSize=50;strokeColor=none;strokeWidth=1;fillColor=#0085FC;fontColor=#FFFFFF;whiteSpace=wrap;align=left;verticalAlign=middle;spacingLeft=0;fontStyle=1;fontSize=14;spacing=10;" vertex="1" parent="1">
          <mxGeometry x="785" y="167.5" width="80" height="35" as="geometry" />
        </mxCell>
        <mxCell id="2HksthL0buNQXl4Dgqd0-9" value="&amp;nbsp; SignIn" style="rounded=1;whiteSpace=wrap;html=1;arcSize=50;strokeColor=none;strokeWidth=1;fillColor=#0085FC;fontColor=#FFFFFF;whiteSpace=wrap;align=left;verticalAlign=middle;spacingLeft=0;fontStyle=1;fontSize=14;spacing=10;" vertex="1" parent="1">
          <mxGeometry x="890" y="170" width="70" height="32.5" as="geometry" />
        </mxCell>
        <mxCell id="2HksthL0buNQXl4Dgqd0-10" value="" style="rounded=1;whiteSpace=wrap;html=1;fillColor=#000000;arcSize=16;" vertex="1" parent="1">
          <mxGeometry x="64" y="243" width="185" height="510" as="geometry" />
        </mxCell>
        <mxCell id="2HksthL0buNQXl4Dgqd0-15" value="&lt;b&gt;&lt;font style=&quot;font-size: 18px;&quot;&gt;Home&lt;/font&gt;&lt;/b&gt;" style="text;html=1;align=center;verticalAlign=middle;whiteSpace=wrap;rounded=0;fillColor=#FFFFFF;" vertex="1" parent="1">
          <mxGeometry x="111.5" y="260" width="90" height="30" as="geometry" />
        </mxCell>
        <mxCell id="2HksthL0buNQXl4Dgqd0-16" value="&lt;font style=&quot;font-size: 18px;&quot;&gt;&lt;b&gt;Dashboard&lt;/b&gt;&lt;/font&gt;" style="text;html=1;align=center;verticalAlign=middle;whiteSpace=wrap;rounded=0;fillColor=#FFFFFF;" vertex="1" parent="1">
          <mxGeometry x="91.5" y="330" width="130" height="40" as="geometry" />
        </mxCell>
        <mxCell id="2HksthL0buNQXl4Dgqd0-17" value="&lt;b&gt;&lt;font style=&quot;font-size: 18px;&quot;&gt;Book Flight&lt;/font&gt;&lt;/b&gt;" style="text;html=1;align=center;verticalAlign=middle;whiteSpace=wrap;rounded=0;fillColor=#FFFFFF;" vertex="1" parent="1">
          <mxGeometry x="91.5" y="390" width="128.5" height="40" as="geometry" />
        </mxCell>
        <mxCell id="2HksthL0buNQXl4Dgqd0-18" value="&lt;span style=&quot;font-size: 18px;&quot;&gt;&lt;b&gt;Past Booking&lt;/b&gt;&lt;/span&gt;" style="text;html=1;align=center;verticalAlign=middle;whiteSpace=wrap;rounded=0;fillColor=#FFFFFF;" vertex="1" parent="1">
          <mxGeometry x="91.5" y="450" width="128.5" height="40" as="geometry" />
        </mxCell>
        <mxCell id="2HksthL0buNQXl4Dgqd0-19" value="&lt;span style=&quot;font-size: 18px;&quot;&gt;&lt;b&gt;Post Feedback&lt;/b&gt;&lt;/span&gt;" style="text;html=1;align=center;verticalAlign=middle;whiteSpace=wrap;rounded=0;fillColor=#FFFFFF;" vertex="1" parent="1">
          <mxGeometry x="91.5" y="510" width="128.5" height="40" as="geometry" />
        </mxCell>
        <mxCell id="2HksthL0buNQXl4Dgqd0-20" style="edgeStyle=orthogonalEdgeStyle;rounded=0;orthogonalLoop=1;jettySize=auto;html=1;" edge="1" parent="1" source="2HksthL0buNQXl4Dgqd0-19" target="2HksthL0buNQXl4Dgqd0-19">
          <mxGeometry relative="1" as="geometry" />
        </mxCell>
        <mxCell id="2HksthL0buNQXl4Dgqd0-21" style="edgeStyle=orthogonalEdgeStyle;rounded=0;orthogonalLoop=1;jettySize=auto;html=1;exitX=0.5;exitY=1;exitDx=0;exitDy=0;" edge="1" parent="1" source="2HksthL0buNQXl4Dgqd0-19" target="2HksthL0buNQXl4Dgqd0-19">
          <mxGeometry relative="1" as="geometry" />
        </mxCell>
        <mxCell id="2HksthL0buNQXl4Dgqd0-22" value="&lt;span style=&quot;font-size: 18px;&quot;&gt;&lt;b&gt;Feedbacks&lt;/b&gt;&lt;/span&gt;" style="text;html=1;align=center;verticalAlign=middle;whiteSpace=wrap;rounded=0;fillColor=#FFFFFF;" vertex="1" parent="1">
          <mxGeometry x="91.5" y="570" width="130" height="40" as="geometry" />
        </mxCell>
        <mxCell id="2HksthL0buNQXl4Dgqd0-23" value="&lt;span style=&quot;font-size: 18px;&quot;&gt;&lt;b&gt;Analytics&lt;/b&gt;&lt;/span&gt;" style="text;html=1;align=center;verticalAlign=middle;whiteSpace=wrap;rounded=0;fillColor=#FFFFFF;" vertex="1" parent="1">
          <mxGeometry x="91.5" y="630" width="130" height="40" as="geometry" />
        </mxCell>
        <mxCell id="2HksthL0buNQXl4Dgqd0-24" value="&lt;font style=&quot;font-size: 18px;&quot;&gt;&lt;b&gt;FlyWise AirWays&lt;/b&gt;&lt;/font&gt;" style="text;html=1;align=center;verticalAlign=middle;whiteSpace=wrap;rounded=0;" vertex="1" parent="1">
          <mxGeometry x="111.5" y="170" width="210" height="30" as="geometry" />
        </mxCell>
        <mxCell id="2HksthL0buNQXl4Dgqd0-25" value="" style="shape=image;verticalLabelPosition=bottom;labelBackgroundColor=default;verticalAlign=top;aspect=fixed;imageAspect=0;image=data:image/png,iVBORw0KGgoAAAANSUhEUgAAAfQAAAH0CAYAAADL1t+KAAAACXBIWXMAAA7EAAAOxAGVKw4bAAAAO3RFWHRDb21tZW50AHhyOmQ6REFGOTVralItaDA6MyxqOjU2MjU0MTU4MzcxMzU2MjY2MjUsdDoyNDAyMjYxNOcHqTMAAATyaVRYdFhNTDpjb20uYWRvYmUueG1wAAAAAAA8eDp4bXBtZXRhIHhtbG5zOng9J2Fkb2JlOm5zOm1ldGEvJz4KICAgICAgICA8cmRmOlJERiB4bWxuczpyZGY9J2h0dHA6Ly93d3cudzMub3JnLzE5OTkvMDIvMjItcmRmLXN5bnRheC1ucyMnPgoKICAgICAgICA8cmRmOkRlc2NyaXB0aW9uIHJkZjphYm91dD0nJwogICAgICAgIHhtbG5zOmRjPSdodHRwOi8vcHVybC5vcmcvZGMvZWxlbWVudHMvMS4xLyc+CiAgICAgICAgPGRjOnRpdGxlPgogICAgICAgIDxyZGY6QWx0PgogICAgICAgIDxyZGY6bGkgeG1sOmxhbmc9J3gtZGVmYXVsdCc+UmVkIENsYXNzaWMgQWlybGluZSBMb2dvIC0gMTwvcmRmOmxpPgogICAgICAgIDwvcmRmOkFsdD4KICAgICAgICA8L2RjOnRpdGxlPgogICAgICAgIDwvcmRmOkRlc2NyaXB0aW9uPgoKICAgICAgICA8cmRmOkRlc2NyaXB0aW9uIHJkZjphYm91dD0nJwogICAgICAgIHhtbG5zOkF0dHJpYj0naHR0cDovL25zLmF0dHJpYnV0aW9uLmNvbS9hZHMvMS4wLyc+CiAgICAgICAgPEF0dHJpYjpBZHM+CiAgICAgICAgPHJkZjpTZXE+CiAgICAgICAgPHJkZjpsaSByZGY6cGFyc2VUeXBlPSdSZXNvdXJjZSc+CiAgICAgICAgPEF0dHJpYjpDcmVhdGVkPjIwMjQtMDItMjY8L0F0dHJpYjpDcmVhdGVkPgogICAgICAgIDxBdHRyaWI6RXh0SWQ+N2E0ODI2MjYtYTA3Mi00NmY3LTg1MmUtNzBhMmZiYzdmOWNhPC9BdHRyaWI6RXh0SWQ+CiAgICAgICAgPEF0dHJpYjpGYklkPjUyNTI2NTkxNDE3OTU4MDwvQXR0cmliOkZiSWQ+CiAgICAgICAgPEF0dHJpYjpUb3VjaFR5cGU+MjwvQXR0cmliOlRvdWNoVHlwZT4KICAgICAgICA8L3JkZjpsaT4KICAgICAgICA8L3JkZjpTZXE+CiAgICAgICAgPC9BdHRyaWI6QWRzPgogICAgICAgIDwvcmRmOkRlc2NyaXB0aW9uPgoKICAgICAgICA8cmRmOkRlc2NyaXB0aW9uIHJkZjphYm91dD0nJwogICAgICAgIHhtbG5zOnBkZj0naHR0cDovL25zLmFkb2JlLmNvbS9wZGYvMS4zLyc+CiAgICAgICAgPHBkZjpBdXRob3I+QW1leSBUaGFrdXI8L3BkZjpBdXRob3I+CiAgICAgICAgPC9yZGY6RGVzY3JpcHRpb24+CgogICAgICAgIDxyZGY6RGVzY3JpcHRpb24gcmRmOmFib3V0PScnCiAgICAgICAgeG1sbnM6eG1wPSdodHRwOi8vbnMuYWRvYmUuY29tL3hhcC8xLjAvJz4KICAgICAgICA8eG1wOkNyZWF0b3JUb29sPkNhbnZhPC94bXA6Q3JlYXRvclRvb2w+CiAgICAgICAgPC9yZGY6RGVzY3JpcHRpb24+CiAgICAgICAgCiAgICAgICAgPC9yZGY6UkRGPgogICAgICAgIDwveDp4bXBtZXRhPiALGXcAAI3WSURBVHic7N17XFRl/gfwzygODMzggoAwXIRRLorlBURTNFI3f11Mf23WZtvFTC2ztNVddbPEytVa7ealFdNsNbz1aykUy/VCam2BeCkwYAxIZFBACYY7zMzvj3HI8TwzDHM9c/i+X69eW88Zz3nWws88l/N9RDqdTgdCCCGEuLVeru4AIYQQQmxHgU4IIYQIAAU6IYQQIgAU6IQQQogAUKATQgghAkCBTgghhAgABTohhBAiABTohBBCiABQoBNCCCECQIFOCCGECAAFOiGEECIAFOiEEEKIAFCgE0IIIQJAgU4IIYQIAAU6IYQQIgAU6IQQQogAUKATQgghAkCBTgghhAgABTohhBAiABTohBBCiABQoBNCCCECQIFOCCGECAAFOiGEECIAFOiEEEKIAFCgE0IIIQJAgU4IIYQIAAU6IYQQIgAU6IQQQogAUKATQgghAkCBTgghhAgABTohhBAiABTohBBCiABQoBNCCCECQIFOCCGECAAFOiGEECIAFOiEEEKIAFCgE0IIIQJAgU4IIYQIAAU6IYQQIgAU6IQQQogAUKATQgghAkCBTgghhAgABTohhBAiABTohBBCiABQoBNCCCECQIFOCCGECAAFOiGEECIAFOiEEEKIAFCgE0IIIQLg4eoOEOJulEWFOPn1MUhlvrj3/mmQymSu7hIhhECk0+l0ru4EIe6gUlWB7WkfICszo7MtOjYOO9I/dWGvCCFEj0bohFhge9pmbNuymdOuLCqEsqgQ0bFxLuiVcymLCtHQ0GDcVlyIBnU957Mh8lAEh4Qy7xMdE0uzGoQ4AAU6IV3IysxghrlQNKjVUBYXoUFdfyOg1SguKkRDgxrKokKHPVcqkyE6Rv9FKCY2DlKZrPOLQHBICELk7C8EhBA2CnRCulCpUpm8ds/909xmdG4IbmVxIa6oKlBcVNgZ4K7qz9m8XADo/N9bjUgYhRB5KKJj4xAdE0eje0LMoEAnpAvRsbGctuAQOVasWo0RCaNc0CPLnM07DWWxfkngbF4uKlUVru5St53Ny9WHfeZvbYaR/cjEURiRkIQRCYmu6yAhPEKb4gi54ejhL1F+6RcMGXobksaMNbq2bctm7Ev/F6QyX8yeNx/3Tp3uol6aZth9f+Z0rskRr1CNSBhFAU96PAp00uPVXr+O115Zhpzvvu1se/ypZ/DsC4tc2KuuVaoqcPLr4zh7Ohdn8nIcOnUuDh/S+fe9+waht2+Qxb9W29qIjqpSo7a28gt26xvLiIRRiImNc6slEUJsRYFOerRTXx/H6tQVqK+vM2qXymT4Kvu/LuqVacqiQpw9cxpZmRl227DW2zcQvfsGQhw+FADgERSJXl4++v/19LHLM0zR1FVBU18NAGi7VKD/3/J8aOqqO9ttFSIPxYSUiRTuRPAo0EmP1NLSgvfWrcUX/2a/Qx4+IBJ7Pjvg5F6xVaoqsH/3LpzIPmbTOrjI0xt9giIhDh+K3n0D0btvEMTh8Xbsqf21lRfoQ7+uGu1VpeioKrMp6KUyGSakTMKElIkYnzLRjj0lxPUo0EmP81NBPlb+7S+ouFxu8jOvv7keEydPcWKvjDWo1cg68LlNI3GPoEiIw+PRJygSHkFR6BMUad9Ouoi2tRFtlwrQVq7/q6OqzKr7SGUy3Dd1OmY8+id6RY4IAgU66VF2fLgFWz/YYPK6n78/Vqz6O8aMTXZir35z6MDnOPhFhlWb2gwBLg6Phzgi3uHT5XzSVl5wI+TzrVqfj46NwyMzH8f4OyfSa3HEbVGgkx7hSqUKqS//FT+eP2fyM2PGJuPVN9aib9/fObFnv43G96Xv7PaUuuegURBHxMNrUBJ697V8o5qQaVsb0arMQVt5AVqUOdC1Nln8aw1T8g8/+idabyduhwKdCN7J7GN4/dW/obGxgXnd09MTi/6yHA/870NO7ZehNvyJ7KMW71AXeXrDKzoJnoOSetwo3FotN8K9VZnTrfV3w6j9nvunObB3hNgPBToRtG1bNmN7mumyrYPjh+K1NesgDw1zWp/O5uVi25bN3ZpW9xw0Cl7RSZAMvcuBPRO+9qoyNOUd6NbIPUQeitnz5lOwE96jQCeC1NLcjFeXL8E3J782+ZlZc57DM88+77Q+WRPkHkGR8P/jKhqJO0Bz/nG0KHPQetGyfx8U7ITvKNCJ4FypVOGl5+fi0i9lzOvy0DC8tmYdBscPdUp/rAlyA3H4EPj/8TUH9IoYaOqq0HIxB02nD1o0JS+VyfDIzMfx8KOP0wY6wisU6ERQcr//L1Ys/bPJNemJk6fg5dQ34CWROLwv3QlyWT8JRv9vDI58eN6ovZenD4Je/NhRXSS3aFHmoCnvgEU75aUyGWbPex4PP/onJ/SMkK5RoBPB2L1rBza+s87k9WdfWITHn3rG4f1QFhXivfVvWhTkoXH9MPzuSChGBgMAdr9yEjXlxueLB/+FXfyGOE5beQGa84+jOT+7y8+GyEPxcuobvD6oh/QMFOhEEF5dvgRHD3/JvObjI8Wa9e8hYdRoh/ahQa3Ge+vfRFZmRpefHZwchsHJYQiN62fU/tna71BReM2ojQLddTR1VWjMO4jm/ONdbqIbkTAKCxcvpdfdiMtQoBO31qBW46Xn5+JCwY/M65FRCrz17iaEhoU7tB/7du/Cti2bunz9bHByGJKmx8A3gD3lT4HOT9rWRjSdPoiGb/d1+dl7p07H03Ofo+pzxOko0InbulZTjRfmPY1fykqZ10ffMQ5//8e7Dl0vP5uXi9WpK7osCBMa1w+TnxlmMsgNKND5TVNXhYZv93U5FW/YOPf03PnO6RghoEAnbqpSVYH5zzyJqqtXmNdnPfMsnnlugcOe36BWY3XqCpzIPmr2c6Fx/TB6ejRnat2UDU8d5LRRoPOPpcEeHRuHl1e+QdPwxCko0Inb+aWsFM/PeRK1169zrnlJJHhtzTqMG3+nw55/IvsoVqeuMDu9LusnwYTHhnRudrNEa1M70uYfNmrzCIpEwJOmN/oR12orL8D1PSu7/NzsefNptE4czsPVHSCkOy4U/IiXnp/LDFOpTIZNWz/GoOgYhzzbklG5WOKB4VOiMHp69/tw61Q7oD+rnPBTizIH9Yc2WfTZbVs240T2MRqtE4eiQCdu48zpHCx58Tm0trZyrvXt+zts/vBjRCoGOuTZlozKByeHYfzMIfD07mPVMy4XcmccxBH8Pq+8p1If24HGvAPd+jXKokI8NfMhGq0Th6FAJ27hm5Nf46+L2GVaAwKDsDHtI4RHDLD7cy0Zlcv6SfD7OcMsXic3RcUYofcJirLpnsS+tK2NqD+0CS3KHJOf0QxXoNeVWoiu1DKv02idOAqtoRPeO/jFv/H3Va8wrwX1D8bmDz92yCtCyqJCLF+y0OwO9qTp0Rh+d5TVo3ID1vo5QBvi+ETb2ojaPSvRXlXGvK7zl6FjfDx0/vpysL0LLqH3uZ+Btg7m56UyGRYuXop7p053VJdJD0MjdMJrp74+bjLMQ0JD8c9tOxEQaP9zwPft3oX31q01eT0g3BeT5wxDYISvXZ5Xc6me0yYOH2KXexPbdRXm2kFydIyOBcS//ZGqiY+AdkAgPE4WMEfrhtmfs3mnsXDxUqoLT2xGgU5464dzZ7D0zy8wr4VHDMAH23bCz9/frs+0ZIo9aXq0VZvezLnMmG73oOl2XugqzDuS46GNljOv6aQStN+TaHa0npWZAWVxIU3BE5v1cnUHCGEp+VmJxS88x7w2KDoGW3Z8YvcwN2xaMhXmsn4SPLhsjN3D3JQ+QZFOeQ4xzWyYiz3QPm2MyTC/mSY+Au3TxkAX7Me8riwqxIJ5sywqG0yIKRTohHcqVRV48dnZaGpq5FyLiR2Mzdv+hb59f2fXZ2ZlZmDBvFkm18sVI/vj0dfH27zxzRTWlHvvvvZfSiCW6zLM70nsXC+3hGG0rhmuYF43zA69v/5NK3tMejqacie8Ulf3KxY+9wyzaEz4gEi8+8FW+PhI7frM7WmbsW3LZuY1scQDEx6Lx+DkMLs+81atTeyNU8R11Md2MMNc5y9Dx6Rh0EmtKymsGTEQun4yeJwsYE7B703fCbVaTevqpNso0AlvtLW1YtFzc1BxuZxzLah/MDZu2W7XkXlXp6PJ+klw38JEu218M8fTm34U+aQx7wCa849zL9wYmd+8+c0a2oggtE+TwePoeYiuc2sbGNbVN275iEKdWIym3AlvLF+8EMVFP3Ha+/b9HTZt3WHX3ewNarXZNcvQuH549PXxTglzAAhgPEfbwl1yII7XXlUG9bEd3At2CnMDnVSC9mljoBkSwbxu2NOhLCq0y/OI8FGgE1547ZVl+O7bU5x2b28fvP/PbZCH2m/Ku6s/KIfdHYUHl42x+d1yW7WVF7j0+T1V/aGNzPburplbSjM6Fh3J7IqAlaoKLJg3q8tDgAgBKNAJD+zasQ1fZXHLaIrFnnh74xYMiom127MMu4lZm9/EEg9MfmYYJsx0/vvfYYzNdu0U6E7X8M0+5rq5JinWIWFuoI2Wo33aGObov0GtxvLFC2kHPOkSBTpxqXNnTuODDe8wr735zgbcNmy43Z5lCHNWPXaxxAMPLr/D4ZvfTGFNubdXlUHbStPuzmI4EvVWumA/aOLZ0+L2pPOXmZ0FWJ26gkKdmEWBTlymproKyxcvZF5b/dY7SBoz1m7POpF91GSYB4T74sHldzhtvZzF07sPAsK5z281UzOc2Jf6+A5uo9gD7ZPs96WyKxTqxBYU6MRlli9ZhPr6Ok7784uWIGXS7+32nKzMDCxfvNBMmI9xaZgbKBL6c9oavt3vgp70PG3lBcwDVzTDB9ptE5zFDAVrBrEL1lCoE1Mo0IlLvP3malzI/4HTPjZ5AmY+/pTdnpOVmYHVqSuY1wYnh+HB5a7f/GYwODmc06apq2K/PkXsivV7rPOXOWWq3ZSO8fFmQ317Grt2Aum5KNCJ0x3+8iD+b99uTntoWDheW7PObs/pKswnPzOMN2EOAL4BEihG0ijd2fRfmrK57aPttxnTWuZCfduWzSb/+yY9EwU6caqfLyqx6uWlnHYvLy/8473NkHh72+U5loQ5HyUx6sTTKN2xGvMOctp0Ui9oTdRdd7aO8fEmy8VmZWZgb/pOJ/eI8BUFOnGa5qYm/GXhfOa1V19fiwGR9jldTFlUiPdM1MPmc5gDQGCEL3OnfcO3+2nHu4O0XszltGmGD3RBT0zTjBho8l31981UOyQ9CwU6cZqVL/8VV69Uctr/8PCjuHPiZLs8w9yraXwPc4PxM4dALDHeiKWpq0LTae5IktimvaoMmroq40axh0UnqDmbNlpuMtRpoxwBKNCJk3z+2X58cyKb0x4bNwR/XvqyXZ4hhDAH9K+wDZ/Cna1oYkwNE9uwljK0Efw95a6rUKcysT0bBTpxuKtXKvH+229x2n19++Ktd9llNrvLUCLT3cPcYPjdUZxRura1kflqFbEea7pdOyDQBT2xnDZabnJNfcG8WRTqPRgFOnG4VSuWoaW5mdP+2tp1djlwpUGtxvIl7PfM3THMAf0offB47mtsVN/dflqUOezpdh6P0A00IwYyd78bDh2iUO+ZKNCJQ+3Z9THOn83jtD/y2BMYNfoOuzzD1FRjQLgvxrugLru9sDbHsUaUxDqsynAaE6+I8ZGpV9oa1GqsXrWC+QWXCBsFOnGYX8pKseGdf3DaQ8PC8ewCdsnX7npv3VrmSVSGCnB8es+8uwIjfCHrJzFq09RVMQ8PId1Tf+wj7ugcgNaFhWSs0TGafWiMsqiQ3lHvgSjQicO8umwxs/31teshFnvafP+szAzs272L064/aMW9w9wgbDD3FDYdvb5mk+b848wNhtpBcuikEsav4LEbZ7SzQv1E9lFs20LV5HoSCnTiEB9t/QAXlcWc9ieenoPYwbZPg5sagRhOTRNCmAOALIAbMKyRJbFMU95B1B3axL0g9kAHDyrDWeVGqLNqzm9P20xnqfcgFOjE7i4qi/HhP7l/aA6IjMK8522fajds/GGZ8Fg8Lw5acSRNXbWru+B2NHVVuL5nJeqPfcS83jE+3vmHsNiTIdQZ6HW2noMCndjdK0v/zGx/46237XL/ZYtfZG74GT9ziMvOM3cUoX85cSRtayOa87Pxa8ZbqE6bb/INAc1whVvsbO+Kzl/GfEedNsn1HG78lZTw0e5dO3DplzJO+5znXoBiYLTN99+2ZTPO5nF3eg9ODsPwu+1TOpZPqi/Vu7oLvNNeVQZdaxN0rY1oryrtbNfUVXcuR3RUlVlUKlczXAHNCH6VebWFNloO7ZVa9LqoMmo3LFGtWf+ei3pGnIECndiNur4eH6X9k9M+KDoGTz0zz+b7n83LZR4Z6e6vp3WXR1Ckq7vgUJq6Kmjqa9BRVQptayPaLhXcCO8y+z1E7IGOpFhelni1Vcf4ePS5robouvGI/ET2UexN34lHZj7uop4RR6NAJ3bz4ZZNaGxs4LSvssORqA1qNZYtfpHTLpZ4YPIcfh2Dak8Vhdc5bb28fFzQE8fQtjaivfwC2qtK0XapwOKRtS10wX7oGB/vfjvau6H9nkSI958E2jqM2renbcaElIkIkYe6qGfEkSjQiV1cLr+ET/d8wml/6I+PITKKXaayO0ytmwt9E1wNY8rd3Ufo7VVlaMnPRlt5vlPfqdcF+0ETHyGI9fIu3dgk1+fz74yaDVUVd6R/6qKOEUeiQCd2sfFd7ijcx0eKZ+Y9b/O9Ta2bD7s7SnCb4G5WcuYKWpvajdp6+wail6f7jdA1dVVoystCy0VGuVVHEXtA5y+DNiII2hA/5rvaQqbzl0EzXIHe50qM2pVFhdi2ZTNmz2MfZUzcFwU6sVnBj+dxMvsYp/3J2XMh87Vt9FypqsC+3Ts57QHhvpgg8HXzc4fLOG2e0UnO74gNNHVVaPh2P/NUM2vopF7AjalybbDfb+0h/r/9/Y0gJ/qa770uVXPW07enbcbIxFEYkTDKRT0jjkCBTmy2bs0bnLaAwCA89uTTNt97dSr7dZvJc9zvwJXu+OnUZVQUXuO0S4be5YLeWEd9bAca8w50+9fppF7Q+cv0f0klgEwCrb/Mvd8Td6GOScP0U++3rKevTl2BHemfQiqjLz9CQT8hxCZfHsxEcdFPnPYFi5bYfO+96TuZU+1J06MFvW5efakeJ9MvcNrF4UPQxw3Wz9urylB/aKPF6+O6YD9og/2gC/Gn4HYAnVQCzfCB6J1TZNReqarAti2bsHDJMhf1jNgb/eQQm3yw4R1OW0zsYPz+f+616b6VqgrmK2qhcf0wenqMTffms/qaZvx77XectXMAkI57xAU96p72qjLU7llpfqf6jSNKtQMCe8YGNR7QxEdAdOU6el0yrjK4b/cu3Dt1OqJj41zUM2JPVCmOWG3nR1tRU83d4PTnpS/bfG/WVLtY4uGWZ5tbqvpSPfa8epId5mMfhjicWwWMT7oKc0Mls7bH7tIf/Ulh7lQd44cyZz9Wr6JT2YSCAp1Ybc8n/+K03XnXJNw2bLhN983KzGBOtY/+3xj4Mg4rEYKcDKXJMPcIioR03MMu6JXltK2N+DXjLXaYiz3QMWkY2qeNEWQhF7ch9tDXrL+FsqgQe9O5G0+J+6Epd2KVjP/bh19raznt8xeyj0y1VINajffWv8lpDwj3FWRp159OXUZORjHqa5qZ1z2CIuH/x1VO7lX3qY/tYL6OpvOXmTwJjDifNiIIumA/iK4Y/+xuT9uM+6ZOpw1ybo5G6MQqu3Zs47TdP/1BhIVH2HTfvek7Bb+rvbWpHT+duoyPlxzDkQ/PdxnmfH/vvEWZw3wtjcKcn1ij9Aa1mnkcMXEv9JNGui376H9QqargtM965lmb7mtqI9ywu6MEsau95MxVlJy5gpIzV5lT6zeTDE2BbOIs3oe5trUR9YzzxXVSLwpzntLveucWnDmRfRRn83Lp3XQ3Rj9tpNt27viQ0zZ5yj0IDrFtffT99W9x2mT9JBg93fZT2lyltakd5w+X4adT5SZH4jcTeXpDOu5h+CTc74Te2a7p9EHmurnGxAYswg+aEQPR66IKooYWo/b31r9JZWHdGP3EkW45m3cahRe450o/Ndu209TO5uXiRPZRTvuEx4a47cErORlKnDtc2uVo3MBdRuUG2tZGNOUd5LRrhkQYVXEj/KQZPxQeh04btSmLCpGVmYF7p053Ua+ILSjQSbek/2s7p23c+DsRNXCQTfdlbYQLjesHxchgm+7rCtWX6nH0w/MWn2UuGZoC6diH0buve73GxRydiz0Edb64kGmD/aCNCOS8m7497QMKdDdFgU4sVv5LGb49dYLTPvtZ2w5gycrMgLKokNPujlPtFYXXcPD9vC5H5b19A+GdeB+8BiW5XZAbtF7M4bRphkTQVLsb0YyO5QR6paqCRuluin7yeK5SVYFzZ05DWVSI4ltCTybzRXRsLABgREISRiQkOrQvH2/fymkbkTAKsXG2HZKyPe0DTptiZH+ExvWz6b7O9tOpyzjy4XmT10We3vCKToJ3wv1uUcLVHE1dFbe0q9gDmvgBLukPsY5OKoF2kBy9LqqM2t9b/yYmpEyi19jcDAU6T53Ny8W+9F3MdeWb/XZdvzs8OjYO0TFxmJAyEeNTJtqtP7XXr+PQgc857U88Pcem+2ZlZjB3zI+fye+qaLeqvlRvMsxFnt7wSbgf3on3uc36eFdaGKNzbbAfjc7dkGaEghPoDWo19qbvpCNW3Qz99PHQ6tQVyMrMsOrXKosKOze2SGUyTEiZhJGJo3DP/dNs6tO5M6c5bbGDhyBpzFib7ssanQ+7O8qtKsIZ6q+ziMOHoO89C9x2Wt2UlvxsThuVcnVPpl5j27d7Jx6Z+TiN0t0IFZbhkQa1Gk/NfMjqMGfdLyszA2+sfBlTUu7A++vfZI6GLeHn789pmzv/RZv6Z2p07m5r50c+PM9cM5cMTYH/H18TXJgzp9sBaAcI6/9nT6KJH8CZXTGM0on7oEDnkdWpK5ibw+zB8MP50NQpWDB3FrNWujnDRyZi6vQ/dP7z31a+jjFjk23qE2t0Pjg5zK1eUzt3uNTEueUp6HvPAhf0yPGY0+0RgTTd7s7EHvoNjbfYt5tduZHwE/0E8sTe9J0m18sVQxOguD0RitsSAABePjK0NOp/yGqvqqAqKUZlSRFK8vMsetbZvFwsmDsLIxJGYfa8+RZXhlr2yiose8U+dcVNjc6T3Oho1NamduRkKDntHkGRgg1zgKbbhUoTPwC9L1wC2jo62xrUapzIPko73t2ESKfT6VzdiZ6uQa3GH6bezfkm7OUjxRMr3obiNst3r6tKipB3JBMXvjuO2qpKi37NIzMfx9Nz5zt1reyhqVM4gT44Ocytjkf9PqOYE+giT28EPLlOcNPsBm3lBbi+ZyW3/bG7aIQuAL3P/sxZSw+Rh+LTzK9c1CPSHTTlzgMHMzOYYT53zdZuhTkAyBWxmDp3CZZuP4il2w5g3AMz4RcUYvbX7E3fiadmPuSw6f5bnc3LdfvROQAUnrrMafNJuF+wYQ4AdYy67TTdLhys1w4N76UT/qNA54H9u3dx2pKnPQa5Itam+/r1l3eG++Mr1mPImBSTn61UVWDBvFldviZnD6yNNoOTw9xqZ3v1pXpObXaRpze8E+9zUY8crzHvAPOIVC29ey4cYg9oB3HPZMjK5L6ySviHAt3FKlUVnNGql48U46bNtOtz4sfchSdWvI2l2w4gYdJU5mca1GosX7zQod/GK1UVOJl9jNM+zM3OOj9/uJTT5hWdJJj3zG/VnH8c6mM7OO3aQXKq2y4wmhEKTtvZvNxub6QlzkeB7mLKYu40t+K2REh8HLOe7ddfjhkvrcLcNWkmp+JXp65w2A8v65t+aFw/tzoetbWpHSVnrnLaJUPvckFvHK+tvIAZ5vq67dw//Il700kl0DG+pB38gqbd+Y4C3cWURUWctu6um1tDcVsiXtywB4qhCczryxa/6JA19X272dPt7oR1nnlv30CIw92rup0lGr7dh+t7VjKPSO1IioVO6j7LJMRyrAN2Dh34nF5h4zkKdBdjjdDlCudsDpP4yDB37VbmFHyDWo0F82bZNdSzGJv/xBIPtwp0/atqxZx2oY3ONXVVuPbxEjR8s495XTtIDm00d62VCIM22A86f+4s4UHaHMdrFOgu1qC27IhNR5rx0iqTob561Qq7fSvfx9j8N3yKe62dnztcytkMB+gLyQhFc/5xXPv4L8xqcIA+zDvGC282ghhjbY5jnedA+IMCnYdCbNzdbo0ZL61iTr8riwqxYN4sm0O9UlXBHO2HudGJaiVnrjALyXgn3CeYV9Wa84+j7tAm5hQ7oD8elcK8Z9AwZmAMZ0UQfqJA56Haq6quP+QAj7/yNkKiuNP9yqJCLFtsa9129jf7y4yyqXxUUXgNRz78gdMu8vSGdNzDLuiR/RnCnEnsgY5Jw6AZ7fwvm8RFxB76GgO3oHfS+YsCnYcMZV2dzbCmzgr1s3m5WJ26wup7m5qqO3+4jHmwCZ+cP1yKz9Z+x+yn78RZgnhVra28wGSY64L90D5tDJV37YFY+ySyaNqdt6i8EzEi8ZFhxkurkLZ8DloaG4yuGb6Zv5z6RrfuqSwqNHnKW2tTO77PUGLCzCHWdfgm9TXNqCi8BvWNNe6bR/9hcf3g6e2BgAhfhFowzV9f04zSM1dMrpkD+nVzoWyGUx/7iNmuGa5g7ngmPYM2IkhfBZBR331CyiQX9oywUKC7WHBIKADuWeOuJFfEYu6arSZDfURCYrcOa+hqiu784VIERvhatdu95MxVVBReQ8mZKyaDFwDnRLTACF+Ivftw1vDra5pQc6ke1ZfMb1Y0nHMuBM35x5kb4AY/dD8SUiZC4iHubLverMb1ZjUq6mugqq/B9WZ6jUnoNIPk+kNbbpKV+TkFOg9RoLtYiDyU01byY55T3kU3R66IxRMr3kba8rmca4apd0tD/eTXx7v8zJEPz0Nd04ykLs5CN4zC9SHOfR/cUobAZh192hWhHY3afOYgp00xJB5PPTK7y19bUV+Di9cqkFtRhIr6Gkd0j7iYNpob6FQ1jp8o0F0sRM5do2pu4MeoR3FbImYsSsX+d1M511anrkCIPLTLo1dZB7F4eXujpamJ89nvM4rx06lyKEYGwzdAArF3H6Ppc3VNk9lRuKOJPL3hO3GWXafZfT2BQG8RAr2BIG8RPHsbXy9X6w9DvFwPVDfp0Kqx26Ph6wkM9arBZ1fLONemzuo6zAEg1DcAob4BuDNqGCrqa/B12XnkXuYWSyLuS+cvg07qBVFDS2cbTbvzEwW6i7FG6JUl/PkDMWHyAwDADPVli1/Exi0fITo2zuSvP3Gce9hLfNJo+AUG4cj+vZxr9TXNOMeok+5q3gn3QTruYbtsgAv0FmFEsAjhMhF8Pc1/NsxXpP+bG/+ZVDfpUFCjw8+1OtS3Wvf8MF8R7pCLEOYrwunsAs51xZB4yCO7Xx8g1DcAM2+fhP+JTkLGhVP48Sr//j0S62gjgjij9BPHj1Gg8wwFuotFx3DDsLKUW4nMlRImP4CSH/OQdzTTqN1QTc5cqLOm2+NHjUZ80mi0NDbiVNYBu/VT5OkNcXg8xBHx6BNkHEiauiq0V5Who6oUbeUXLLqf56BR8IpOgqedDl0J8xUhJUKEQG+Ryc+UXCiAqqwUEm8fJKRwZwICvfX3SIkALtfr8F+VDpfrdRY9f0iACCODjZ9fW8U9PU0RP9Si+5niL5Hh6YR7cPFaBXb/cIzW2QWANe1+7gy/9v4QCnSXk8pkCA6R40rlb++eNzeqUXtVBb/+/CmtOeOlVQDADPXVq1Zg45aPIJUZl4pknSQH6EfogH5aNyQqCpkfbWNOwVuit28gPKOTIBl6F/oERZr+YHg8bq46rqmrgqa+GgDQXlUKXUsTPIIi0cvLByJPH/P36iZDCHeOtm+Rl30cBbnfoyDne6P2UwczMTf1dUh82F8mwnxFmOErMhvsvp7AiP69MMiPPRtQUpDPaRtoY6AbDOoXiiXJD2P3D8dotO7mdP4yzm53Q7EoczN0xLko0HkgOjbOKNABoOTH00jo/4CLesQ246VVqL2qQkl+nlG7oZrcraHO2jgzZFSS0T8npkxE/KjROLJvDwpyv0dtdbXZPtw8CheHDzUKXs/e+pAL9Nb/c6sGqG4ELqu5Qde7b1BndTdHHqoyJlSEO0K55R6aGxvxTdYBnDqYieZGdlU2VVkp0lJfwcJ/vG32GYZgr2/VT8lXNeluTOd3PaXvaJI+nng64R7s/uEYci5ThTF3po0IQq+Lxn9OZWVmYGHsMhf1iNyKAp0HRiSM4pwRXvJjXuf6NZ88/srbSFs2h7MsYKgmtzHtt/eZTzDOPTeMzm8m8fHB1FmzMXXWbKjKSlFSkI+8Xxo614hFXt7oExSlH0Ezpr7DfEUY2V+EgX6mp7J/rtXhzFXLp6dt5dkbmKLoxezT6exjOLBju8kgv5mqrBT7N23AjOdf6PKzvp6Ar6f53wdL2DrlzvLo7RMBgELdjWkHBHIC/SxNu/MKBToPjGTsFL91FMwXhmpyrFA3VJMzFJ5hjdDjR3ED/WbyyCjII6MQWa/D/kKt2c+aC81bDfTTB11BjQ5f/6K1625xVr9mDO7FWStvbmzEgR3bcZrxRcccw+ctCXU+e/T2iWhub6XpdzelDfbntBmKRrE29xLno9KvPBAdGwepVGrUVntVBRWPdrvfzFBNzstHyrmWlZmB1akrcDYvl3OgS0hkpMn14FuF+YoQH2A6qAO9RZg9vHe3R6PxASLMGNyL83qYvZgL87TUV7oM85CoGObv6+nsY93+ItCV2uoq5t6F/Zs2IC+769oB1nj09omQ9HHxOgCxjona7qwjoIlr9E5NTU11dScI8EtZKS4WGwe4Rx9PxCaMdVGPzJP5BSAmYSzOn/gKHe1tRteUxYVQFhfh+jXjQiPDxyYjdsRIi58R5ivCD1U6aG6ZJQ/0ti2UffqIEPk7EYquce9tqwdjeyFEyg5zVRl7ZOrlI0XKjFmYsWgVUmbMQkzCWHx/6P84n7uQmwO/oKBuv1LW3NiI8otKFOTm4PvDX+FU1gHs37QBpw4egPrXXzmfV5WVoiD3e3yTdQCB8lAEhdrvvPo+vT3g6+lDo3Q3JaprRK8rtUZt/foFYMzYZBf1iNxMpNPpnLOoSMw6kX0UyxcvNGrz6y/H0m32e63LEUp+PM2sJsfyxF+WMdfQzalu0mH/T79Nkdsa5jdr1QD7f9Kiusk+PwJ3K3oxZxX2b9pgcnQ97oGZmPzYPEh8jN8QyDvyBfPdfwCYl/q6yXVuVVkpKsvKUFtdhZ8L8lFbVYXaau6rad2RmDLR7tP9f/vPNjS3W/kiPXGZXldq4XHIeN08OjYOO9I/dVGPyM0o0Hlkyp1j0NBgXDt9xqJUXm6Ou5m58LlZ6o5dFk+536y6SYf/Vuj/M52isC7ML+TmoCDne1yvrsLA+KGYPOMRAPpQ/0KptXmzXHyACHcruCtYpw5mInPHdk67l48UT6x422yJX1O/rxIfH8yY/wIkUilKboS2qqzU5AyAPSTfe7/F1eMsQbve3Zf4o/9w2r7K/i/ntVXifDTlziPXr9WgIN/4zO3K0mIkTJ6KPmL+rjvKFbHwCwrBhe+yTX4mJDIS4++batX9ffqIENtP/5dHN3Z91FZX4cj+vdj97nqczj4GVVkpaqurUFKQj1+rqxGfNBoevdA5qq5uglVT8EMCRJjCCPPmxkbs/MdadLQb15v38pFi7pqtiIi73ex95YpY1F5VcTYfdrS34/y3p5CXfQwlBflQlZUyp87t6ZKy2KrpflNEAM5WXrTLvYhz9bpSa1QGFgDGjE2mjXE8QIHOIwMio7Bv9y6jtpZGNTra2ni7lm5gKnwMurt+bovmxkZ8mb4L6e+uxyVlMSdQAXSOZg1FVMJ9RYjt1wutGqC+1bJgNwT57UHsbxlffrITJRe4pVXnr/8YckWsRf9f4u+4y+zvqy1ComIQEXcbhk2Ygskz52HyzHmIvyMFXj4ylBf9yPn8hdwcyCOj7LKmrm5rphG6mxI1NHPW0YNDQjEy0fy5DsTx6LU1HgmRh+LhR//ECfVvvkhH/B0pLj+BrSumqskB+pKmzY2NVk25d0dJQT7+9Y+1Fr3jfWT/XvgFBSExRf+OtK8nOkfal+t1KFfrUN0EtP5WHAuBPkC4TF/1zdzUf3NjI/IYZW8nz5xncZgbmCroYykvHynkUbFQ3J4Iv6AQ+PWXm/xvyXBNrohhTvfv37wB8qgo+AUGWdUXg4vXuBUEiXvQ9eNOrZ/NywEw3/mdIUZoDZ1nGtRq/OH+33PW0iU+MsxZk9btMHCFtGVzmOEjj4wyW8rUVpk7tuPUQe6Xia5Ys1mvK6y1c7+gECzdzj2q1BLNjWrmu/+3UgxNgF9/+Y1gTkCIIpaz4c5SR9K34Ej6Fk77kFFJePKvy626p8G6U/vouFV31dYB8SfcL6vf5HHLCBPnokDnIdaOd0A/rT1nTZrVf0A7i7nwUcQPxbzU1+3+THM7yQH9KDV+zF3M2QOJjw/mpr5u8/pwyYWCzjXtkoJ8ziyBYVrbWs2Naux/ZyUufJetH2kHyaG4PREhihj4Bckd8mVv/zsrmb9nyzZvsXqU/vN1FTZ+l2Fr14gL9fn8O4iuG9eZ+DTzK1pHdzEKdJ56Y+XLOHTgc067EELd3q9BmQtzLx8pkqc9hnHTZkLiIzM56uxuqNdWV6GyrAw/F+R3hnhXVu79mvf/3ljee+GPnH+PU596GslWbnKk0bn78zh6Dr0uGZ+7sDHtI4xgVL0kzkOb4nhqwl2TcCL7KK5fu2bUrq69hprLv2DYhCku6pll+og9ERF3G7PwjKqstHOXua1OHcxEdsZnzGtDxqRg7tqtiE0Y2/mWgOK2RJM7x8uVxRg2Lhl9xGLOvVRlpTj/7TfIzvgMhz7ZiSP79+L8N6dwSVls0Q7zIWNSkMjz1w9N6WhvQ/GZb43aIqJjrDqV7UTZD7QZTgBYBWZoY5zr0aY4HtuUtgNPPvoHzklsBd8dx/53UzFjUaprOmYhuSIWc9dsRdryOWhpNN4TcDr7GKLi4zs3pFlDVVbKfMcbAO6fswTJ02Yyr814aRWaG9Wc1+wMp5s98ddlqCwrg6qstHMEbitTfXEHfv1D7HIfVX0NvlRy6/sT98PaGMc6Kpk4F9Vy5zGpTIa169/n1HkH9EVHMtPWuaBX3SNXxOKJFezjP7ta9+7K/k0bmO0zFqV2GaAzXlqFkKgYTruqrBRr58/Dx2+twX/27bEpzP2CQpAwaSrmrknj/RsK5lz4b7bN92jpaEP6D8eoOpxA6KQSTtuVSgp0V6MROs9Fx8ZhY9oOLJj7FGfn+zdfpEOuiOF9JTnFbYmYsSiV/RrUpg2dJ6x1h6FQzK3GPTDTot8Pc6fGWUsxVL+rXHF7AuRRsfDrL7fLfV0p78gXzE1x3f339e8Lp2jdXEB0/qxX1+goVVejTXFuwtTOd8A9ysMC5kuZmtuQxirO8q+31nB2kSuGJmDu2q3d6pOqpIi5JNAVLx/pjfe1Y6G4LcGtR+CmmPr35eXtjVUff2LxfU6U/YB/Xzhlx54RPqCd7vxDge5GDEeTsrz4/m63eEfd1GtQ9rB02wGrRsWWhHpIVIxReAth9G2Oufr8M55/weK9D/lXS7Et75Ade0b4gna68w9NubuRe6dOh1qtxvvr3+Rc27p8rlsUnjFXTc4WCZOmWh2yrM17iqEJUNyeaHNxFnd0YOs6nPo8nXktIeUui8NcVV+D9B/se4Y74Q+dvwy4JdDPnM6lQHeh/wcAAP//7J15XJTl2sd/MwMzwAwgCKODokAsKpjLmJqaB9QyVNTOSTNPi7Zgby5Z2qq9YumrmZq5dcRMyg6pVEdF5VQo5Jai45KMyhIiBCioLDPDwMDMvH9Mow7P88wCs3N/Px8/9bnuZ57nFpn5zXXd10IE3cV4ZubzKCq4RqlRVypk2P5+MhZs/M7pvceOtjKloyMNWwCdqKfsOYbaW5VO//OzJRkbUiDJPkC7Jo5PwPS5C8y6T61Shs1n9pMkOALBjpAsdxdk6fKVSJw0hWJXKmTYtXIRlAoZzauci+c/XE+bZd4eRk6eaTUR7qxirlTIrCbmTa0q7JBkETF3c7SiQIqNlK45FnKG7sK8+Ow/UFxYQLG7Uje5g6lrUXJZlx0bILRcTPs9muDSNd7OgD66U1lC/V0CLDszb2pVYfPpfSSjvRPAvlkLjyzDzPZB4iHYnJrmmA0RiKC7MnKZDHOTZ9GKeuzwBDy/dJ0DdkVwJYiYE9oLS66EZ4Zh9QIRdMdCQu4ujMDXF1tS09BdRPVs9d3kCAQmKksKjIp5RGwcEXMCI3TNZUgtumMhgu7iuEM3OYL9MSXmgG62PFM3vrbskGQRMScQHAwRdDdA302OTtRPHkhnTHQidE70Ym5O8uS53KMmRf2734+i+A5JhuqMaLsHUGxtO1oS7AcRdDchKqYPlixfSbtmLHuZ0LmQZB9gFPOA4GDa1xgT9e9+P0qmpxEMUMidv8rGXSGC7kaMjh+LJSkraNcyNqQYDa8S3B999zc6MReFheGNTz9jnFN/LvcoPn/7LYN2u0TMCQTnggi6mzEhaSoWLHqXds3UmSnBfTHWylUUFoY5KSvgzedjSPwYRlGvLL2Oz99+C6V/FGLLmf1EzAkEJ4OUrbkpK5YtoXSTA3RTxlyhmxzBephqGJM062V48/kGdlNn5+phMVD362XVfRJcD86FP8C5WGJg+/HQL+jWXeSgHXVuiIfuprhDNzlCxzGn+1tbMQeAIfFjMCflY3j5+NC+lnOmAB5Z58CSK626XwKB0H6IoLsxS5evRGQ0dViLJVnOBNdEqZBh14pFjGI+asIkk61cI2LjMGf5CsZkOfbNWnhmnNB5aKrWDu+Z4B6omknLX0dBBN3N2ZKaxijq33+WYv8NEWyOvvub9HQO7fq0ufORNPtls+4VEhaO/1n9Gfi9Yxmv4Vz4A9yM40TYCQCAu3fvOHoLnRYi6G4O6SbXubBmK1cAaFYDmWXe8J2+HL5jZjFfqGq9L+x5BSQUTyA4ACLonQDSTa5zUFlSgI0LnqUVcy8fH7zw9nsWiXlNoxbf5qtR06jLm+WLJ6Hri2vBDe3H/CJVKzjSMnhmnIDn/tNgF1cScScQ7ATJcu9EFBVcw7zkWbSdnKYtTIF43GQH7IpgDYzlRXj5+GDO8hUICQs3+341jVpkXNWgWU2/rszPQcPRndA2N5p1P63AG5rewdAG+t77Q3B96LLct375NQYMEjtoR50bD0dvgGA/9N3k3l/0BmVNH3onou562FvMAcA7LgG8qKFoPHcICslBk8LOkivBkZYZ2LSBvtB21Ym7JtCXto0ogUAwH+Khd0IOZ+7DypSltGsLNn6HkAhqEh3BOTHVMObFd95HQLDQ7Pv9KdPiQKFxMW+LpllhtrAbhesBdVQINJEhxIN3EYiH7lwQQe+k7EnfhY3rPqHYvfm+eHVVKhF1F8Dc7m/mcuW2Fj+VaDq0J2V+DpqK8tBcfLZD99EKvKEeFAFNJGmA5MwQQXcuiKB3Ykg3Odfl5IF0xmRGR4n5g6jrq9FUnAdVmRSqcmm7PXetwBvqx2KhIeF4p4RO0Hf/eBChvcMcs6FODhH0Tg6TqIdExODVVanw5pPQp7NhTvc3S/i1TIPzN237MaAql6Kl+jpaq0uhrq+GqvyKRa9Xx/aCeuBDAJek/TgTpPWrc0EEnYAXn/0HiguppU5E1J0Pa4v5zyUaSG875iOgpboUrdXX0VJdCmV+jkkvXivwRuvYAeR83YnwOHIR7LIaAxsRdMdBBJ0AuUyGucmzaEV95OSZSEpe7IBdER5E38q15PI52vVx057B49NnmH2/ZjVwoEiDPxuc5+2vO3vPgzI/l/kirgdaEocQUXcSPLPOgXWz1sBGBN1xkMYyBKPd5K6cybX/hggG6Lu/MYn5tLnzLRbzjKvOJeYA4BU1FP6J8xCcvBXecfH0F6la4Zl1DuyyarvujUBwBYigEwDoRH3p8pUUu5cPtbscwX5Yu5Vr2+5vzgjHXwj/xHnoMvUdsHg0095UrfA4cgmsu2S4kMOh6d1PvHPHQQSdYBRyfu44KksKsOalSYytXOekfGyxmGdc1aDBRYZheUUNRfCcL+AhDKNd9zhyiQyDcTDkS5VzQQSdcA+ZrIFiE5F6dIdgTve3iNg4s+935bbp7m/OCJvHR+CM5bQheJZcCY8jF+2/KQLBSSGCTrhHUQHVE/QWEA/d3pRcPmfVVq76GnNXE3M9bB4f/onzwIt8hLp2sxbsokoH7IpAFx2hy8Mh2A8i6IR7yGk89AAhOQ+zJ5LsA0hlEHNRWBje25pqkZj/XKKxasMYR+I/YR5t+N0jr4CE3h0AmybcLgohgu5ISJcGwj2KCq9RbKRbnP2wdivXtjXmmmYFWsqvQFWma/KibqiBul6XLc7xF8JTGAZuaCx4kY+A429+/3d7offU73zdpozyr1ns6mHkeMjRdBf1cPQWOjVE0AlGCRASQbcH2enbkJ2+jXYtol8sXnjnfbPFXF+Wps9kV5VLoczPhTI/h/E16vpqXbvWojzg6E54RQ2Fj3giuKGxlv9lbIinMAyCEdMhP7XXwM4proR6EOkkZ09Yd+g8dCLojoT89hPucUFCrXMmHrrtsWb3t4ZmXcOYmkYtVOVS1GdtueeFW0JTUR6aivLADY2Ff+Jcp/LYfYZMpE52U7WCfaMamijy+2o35EqKSeBLcm4cCTlDJzBCzs9tjzXFXF9jXll6HXd3L8Pd3cvaJeYPoiqXoib1dTRKDnXoPtaEzeODL55EsXOulNFcTbAVdGfo0TF9HLATgh7ioRMAABck1HGXJNxuO0w1jEma9RJGTUwy+376OeZ3ju+F/ORe0y+wkIajO9FSXQrfMbPA5pl/jm8rvOPiKWF31l0ZWHIltAJvB+2qkyFvopgEpCrGoRBBJzBCwu22wdrd367c1uLwhZuo27cGLdWlRq/17xkI0cAwBMeIEBR9PwLTeEeG2wVVuPFbEW4XVtHvOz8HrdXXETBjucNFneMvBC/yEcrcdfaNGqhjezloV50LFk3IPYp46A6FCDoBAHA4kzpClQi69am9VYldKxdZTcwv3NTiv0dOoyFrCzTNCsbrej0ahcixcfAP7Uq77tPVF71G+KLXiGjcLqzC73t+Q/2fdynXtVSXonb3MqcQda+ooVRBL64kgm4H6DrERUaTKgNHQwS9E1NVWYGM777Focx9kMuob1Byhm5dzOn+ZmmN+bnco6jP2sJ4TVC0CH2TBht446YIihZhzId/R/GRfFzee5qy7iyizosaCrT5u5Owu31g0dT9kwx3x0MEvRMil8nwVepW7EnfZfQ64qFbD2uKebMa+PWGBmcO7GE8L/f05qJP0mBEjjW/PWxbIsfGIThahOPrDqFFqTJYa6kuRd1/1iBwxvJ237+jsHl8+rC7tIzUpNsYVhU1ehMVTcLtjoZkuXcyLkjOYtbMp02KuRdfQPq4Wwnp6RxGMQ8IDrZYzDOuanBq12ZGMffvGYgxHz7VITG/d6/Qrnhs0UR4enMpa6pyKRqO7uzwMzqCV9RQio1TTFrB2hq6kHtUDPm8cDRE0DsRe7/7FvOSZ6OqssLodQFCEaa9uZxMWrMCkuwD2LViEWMr1zc+/cxsMa9p1GLHRTVKj2cyNonp9WgUxnz4d/h0td6/nTFRb5Qc0jWjcRDecQnUEauqVtLf3cawb9ZSbMRDdzwk5N5JWJmyFIcz9zGue/EFiB2egH6PxiN2eIIdd+a+WLOV64WbWuSWaaDMz4HsaBrtNf2nD7eKV06HXtTpwu8NWVvA7RXrsPN0r6ihUObnGtjYxZWkyYyNYMmVlN75AoGAnKE7AUTQOwF70ncxirkXX4BxM1/DqCkz7bwr9+bg9rU4sT+ddq3fI0Mxfe4Cs8S8WQ38VKLBH7VatFSXMibAiV8cjV4joju0Z1P4h3bFw9OHQ/L1MQO7plmBhqwt6DL1HZs+nwkf8SSqoN+sJclxNoI+3E68c2eACLqbcyz3CDau+4R2rd/weBJatwHW6v6mbxbTrNaJZu3uZfT3tIOY6+k1Ihp1f97FH0fyDexNRXlQlUsd0vtdN1SmH1TlVwzsnAslaH3MuXrRuwN0PdwHiam5DAT7Q87Q3Ri5TIaVKUtp16YtTMELS9cTMbciSoXMKmLerAZ+LdMg4+r9GeZ1/1lDW2feZ9Jgu4m5nr6TBsOnq4Bit0WHOnPxjqMeE7GLK2mbnxA6Bt35+eAh1Fn1BPtDBN2N2bB2NW19uXhsEsTjJjtgR+6Lvvsbk5hPmzvfLDHX92M/f/P+2FOF5CBU5VLKtb0ejULfpMHt33Q78fThQjzrbxS7qlxKu0974B2XAI5fMMXOuVDigN24N7Qhd5IQ5xQQQXdTqiorkHWQ2v1NPDYJ0950XO2wO2KtVq6nK7T4Nl+Dhub7NnV9NRQnMyjX+vcMxMPTH233njtKULSItlmNI710wcjpFBvx0q0L+2YtJSGuuyiETFlzEoiguyk7tm2l2Lz4AkxKXuyA3bgv+oYxdGLu5eNjlpg3q4GMaxr8VqGhrMlP7aUNtYtn/Q2ePtQyMntCFx1QlUs7POGtvTB66ccdEzVwR+gayoy2oFUxwbYQQXdD5DIZrXee9OpicmZuRUyJ+ZzlK0yKub62/M8GLWVNXV9Nyd4GdOfmTD3Z7Qmjl37Kybz0m7VglznmS4a7wS6rodgGkfNzp4EIuhtyiKZEzZvvS87NrYg1WrnWNGoNEt/aQieMPl0FDjk3Z4Ku7r1ttrk98Y5LgIcwjGLnnCmkhIoJFqJqpT0/H0wy3J0GIuhuCF0inD4Dm9BxjIm5KCzMLDHXt3BlEnNNs4LWO+87yXnEHABEA3tTMt7V9dUmx7jaEr8xsyk2llwJzoU/HLAb94F9kxpuj4yOIefnTgQRdDdkQtIUCATUsiJJ9gHGLGyC+UiyM5nFPMW8vuy/3mAWcwC0rV19ugrsXqJmDnRh92YHtoPlhsbCOy6eYudcKSOh9w7AqqIpVxOTcLszQQTdDRGF9MCS5Stp14zVSRPMw1tA75EMiR9jdivX6kbj63SC+JCN2rp2lJCBYRSbqjyfeqEd8R0zm9rjHYDHcSnJem8ndOfnE5KmOmAnBCaIoLspo+PHYknKCtq1jA0pkJ6mH+5BMI14bBK8+NQISGbaVyiRdlzINM0K2nPo3o86n3cO0HvordU3HLCT+7B5fPgnzqMuqFrhceQSOU+3EP2c+QcRCASk5auTQQTdjZmQNJVR1L//LIWxbppgnIBuIYy1/N98uhq1NabDutP6shHsw6Jda6U5f/bvGejwMjUmPH24lHN0TbOCttzOnnhFDaUNvbPuyuCZdY6IugXQTa97LH6sA3ZCMAYRdDdnQtJUJE6aQrGbaoZCME7s8ARMepVa069UKPDNmtVQKoyLGY8DjI9ggcehrqnKqHXTIpqwtjNBN66V7ouJvfEdM5s2652IumXQhdtHJ5D6c2eDCHonYOnylUZFnS7Bi2CaUVNmQjw2iWKvLL2Og2lfmXx9sA8L0/qyaUW9LXya3ukE07B5fARMfYf2PN1lRF3VCtbNWtqSMXvAFG4fTTx0p4NMW+skLF2+EnK5DMdzjxrY9aL+6qpU0nSmHUxKXozKkgJUXS80sJ/LPQpRWBhGTaQK/oPoRf3BEja6hDKfIOf+t6Eb1uIscPyFCJzxEe7u/l9omw2zEfWi3vpYLLSBzvEzZpfVgF1WDdYdGb2Icz2g6R4ITe9gaHoJAa5tP8bpwu2DhpDac2eEeOidiKUpKxEZHUOxV5YU4MpvJEmuPXjzffHC0vWMSXLSvDMm72GJp+6sNN6RO3oLRvEUhiHgqXdp1/SizrlSZuddPbAHuRKcvAJw/50DjyMXwS6qZPbIVa1gl1XD47gU3Izj8DghtWmUgT67nRrxIzgeIuidCIGvL7akpqG7KISyplQ49weyMxPQLQQvLF1Pu5axdRMqS6+bvEewDwuTo3RvR24otTytpVHVsU0SwA2NhX/iXNrwO1St4JwpgEfWObuGttk3a+Fx5BI8M06AIy2zXJhVrWAXVYKbcZzWk7bG/ki43XUggt4JuVlFfePHDo+3/0bciIj+QzBtYQrFrlQokLFlk8kkOQDo6cfCExH0b8m68jsd3aJNofPQ6QalOBrvuAQEzviIXtShEzDP/afhkXWO1jO1Biy5EpwrZfDMOPHXc6zQ7EbVCo8TUp23bkVIdrtrQQS9k3Es9wjFJgqPRkA3qtdOsAzxuMmMSXIZWzeZdY/YIBZGDKN66FWXHFvXbYyWRhUa7xh6tSyeDzj+QgftyDiewjAEvbiWNvtdj85zvqjznPMKwC6raX9Dmr+S2jh5BfDMOKG755kCs+/H8QsGN7QfuKH9TF7LLqq0nqirWsEupgr6MzOft879CVaHJMV1Mo61SYoDQIa2WJFpby6nTZKT5p3BL3t34/HpM0zeY8SACPzcxlZffge3C6tom7g4mqqLpRSbpxGxdAY4/kIEvbgWDUd3olFyiPE6llypC4VLdefrWoE3tKIAaAXeugu4HtA8kEzHkivBkjfp/v+vpDZLvwiweD7wihoKH/Ek2p+jfgqfMj8H6gZqFIFdVAmOpwfUw6j5MpbAofHOu4tCSDMZJ4YIeidCLqNmuQMk3G5tkldvxycvTURTm7yE7Iw9CBAKTY5U9ebzIY5PgCTXMFGx+Ei+Uwr6jd+KKDZelGtkQfuNmQ2vqKFoOLrTrLp5llwJVpGhQFsrl9FDGAa+eCK84xKMXsfxF0Iwcjp8hkyE/ORe2i8knCtl0Ab6QhPV/sgbmyZJkLR6dW5IyL0TQTdWlYTbrY833xfJq7bTZr4fTPvKrCS52EeGUWxVF2+g6qJzhd5vF1bhdmEVxe4V6RqCDuiS5YJeXAv/xLkOOff3jotH4IzlCHpxrUkxfxA2jw+/MbPhnziXdt3jhLTdCX50yXAACbc7O0TQOxFZB/dTbCTcbhtCImKQ1IFOcrFDh0EUFkaxS77+1aky3q9mnqfYuKH9nPb83BjecQkInvMFukx9B95x8YyJcx2FxfOBd1w8/BPnQrjga/gnzgM3NLbd9/OOS2AUdc92Zu3TJcMlTppCRqU6OSytVqt19CYItqeqsgJPJ42n2Jft+ZU0lLEhmalrcfJAOsUeERuHOSkfG31tZel1fP72WxS7pw8Xj701Ef6hXa22z/ZwNfM8rh2kCnrgjOUdEihnQlUuRVNRHlqrr9MOzDEHjl8wOP7B4IbGwUMYBi8bHUfIT+6F/NRe6gLXAy2JQ8xunMOSK+GZcYJi35y6E4PIuFSnhpyhdxLokuH6DY8nYm5jkpIXo6qkACX5EgN7iTQfmTt3IGn2y4yvDQkLx6gJk3Di8EEDe0ujCsfXH3KoqJedKqQVc102tnuIOaALxz/492mpLoW2WYGW6uvQNt3vOqdpVoDNuz86l+MfDI6/EB7CMAO7LRGMnA51gy5hzgBVKzz3n0brqFizztQ5F0ootsjoGCLmLgAR9E4CXbidJMPZh+c/XI+N82egttrwrPnE4YMQhYcbTZJLmv0y/riSj6rSUgN7S6MKR1f8Bw9PH273OenXDp6nDbWzeD7wHfOSXfdib/RZ5876pcV3zGy0VJfSJvh5nJBCU1YD9bDo+1n6bSGlai4NCbl3Aki43fFUlhQg9f1XKZnvAPDGp+sREhbO+FqlQoFtKUspoq7HP7QrHp4+3OYZ8PXldyD5+hjqGZrc+CfOtSipq73ovORGtFZfNxjR+mCHPXNqtt0VTbMCd3cvY87a53pAHdsb6n69KH3gORf+AOeioYfeXRSCHw62LaQkOCNE0DsBe9J3YeO6Twxs/YbHM7YrJdgG6ekc7FqxiGL35vPx7pZt8OYzh2ZNiToABEWL0HtENEQDelt1dnp9+R0UH5Wi7FQh4zW6JK95Vnvmg6jrq9FcfPbeeba5eArDwA2NA7dXLDxD+9kt9O0s1GdtpobfH0Ar8IYmKgSaSJHOY1e1gptxnNJ+9qXk1/HynNdtvFuCNSCC3gmYNfNpFBVcM7BNW5hCMtwdQHb6NmSnb6PYQ8LC8canxr9gKRUKZKbtoNSnt8XThwvRwDAER4sQFN2ddla5KfTlaDdOFVG6wLXFRzwRfmNmW/wMU6jrqyE/lQFlvnUGB3nHJUAwYppLZuC3F8ZEuTZoegkBngclu10gEOCHg7+Q7HYXgQi6m0PC7c7HNyvewpXTuRT7kPgxmDZ3vsnXnziUiV/27kZTY6PJawGdwPv37IrgmPsheX14vvGO/J5gK+7I0XhbRltXTgeL5wO/MbOtHmbXNCvQKDkE+UnTQtQeuKGxEIyc7rTn4NZGVS41u3FOW4h37loQQXdzPl+7Gnu/+9bA5s7h9pJ8CQKCRU7dLEepkCH1vVcp7WEBYNrc+SY7yQFAbU01DuzcgStnzQ9BWxNuaD/4J86zurfbUl2Kun1roK63wsASE/DFk8AfOa3ThOIVkoOQn9xLmQnPBPHOXQ8i6G7O00njUVVZYWB7fuk6xA63ffKSPaksKcCulYtQe0sXMhw1ZSYm0TR2cRaMJcnNSfkYEbHmZa5Xll5H9v5MSE/YZ549N7QfvOMSbJL81lSUh4asLQaJbnRogoKh9fOHNoj6ZYJdUW7wX1Nw/IXwT5zbabx1TbMCjecOQSE5aFLYiXfuehBBd2OKCq5h1synDWxefAFS9hxz0I5sQ2VJAba/nwylwvCsVzxuMu1IU2eh5PI5pL6fTLF78/l449P1CAg23/stLruF3d9lQlkmbVdo1Rj6YSHecQk2Ez5lfg7qs7Ywrmt9/dAybAQ0EVHQ8nhm3ZNdUQ7OH0XglBSDJWswei1fPAm+Y2ZZsmWXR5mfA4XkEO3vC/HOXRNOSkpKiqM3QbA+RQXX8Pm6TyizzweMHo/YR93HO5dkH8DuNR9QxBwAqkoKUFtd5bT19gHdQuDF90Xh+VMG9taWFpRIpRgwchQ8ueZlqwf6C9B38CCUhz4Obr94cPyDweJ4Aq0tZodYH8RDGAavPiPBH/YUukyYB6+ooTZLJjMm5louDy0Jj6Pl8URog4WAh/mtM7R+/tD0DkfrQDG0fn5g11SDpWqmvbalqhDqhhqbdXFzRjyF4eCFD6Qd7vLcrFcwfMQoB+yK0BGIh+5mXJCcxY5tW3FBcpZ23Z3C7ZLsA8jYkGLyOmf31DM+WwbJkUyK3dwkuQepadQi46oGzWpDu6pcCk2TgtF7Z3n5wFMYDhaPb9fRpy3VpbjzNf3RiDoiEi3jEs32yM2BU1IMz1+yGIXdUxiGgBnLO825et2+NZRSQOKduy5E0N2EqsoKbFy3BsdyjzBe407h9owNKZBkHzD7emcWdWNJcuOmPWPWDPUHkd7W4ucSjbW2ZzM0zQrc3vY67Zm5um8sVOMSbfJcVnMzPLOzwCkppl3vLKKuKpfi7u5lFPuSlBVkTKqLQqatuQGHM/dh1synjYo5AIya8k877ci2GBPziH70Z7zmevOOwJvvixeWrqcdt5qdsQfSvDMW3S82iIUnIpz/rV33nzV2F3MA0PJ4UE2cCtW4J2nXW6pL0WDkPN9doDvm6C4KIWLuwpAzdBdnZcpSfJW6FSoV80jNAKEI42a+hvhp1m/+YU+UChm+WDwLhZJTtOvi+AS8+M77CBAKacu5nPlM3Vvgi2jxCJzJ+oGyVnjpAqIHDoJvlwCz7yf0YcGPx8Iftc4ZgFNIDkJ56ReK3dZi/iDaYCG0wUKwb1wHS214RtF6t8Ktz9QVkoNounaSYl+9fiNEIT0csCOCNSCC7qLIZTK8Nf81HKeZoqYnIk6McTPnYNqbH6FXn/523J31qb1ViZ3L5qOypIB2PWnWS0j85wsAdF3XXFHUfQOCECAUUZrOtLa0oLyo0KIkOcB5RV1dX436zA3QqlsM7JqgYLQ8mWRR4ltH0QYEQtM7HJzCa1RR/yvfgNvLvUramH7+j8WPwfOzXnHQrgjWgAi6i7Lsg3dw5jfqzGJA55G/sHQ9xv3zNYRExNh5Z9ansqQAXyyehdpq6hQoQNeMZfgThuFTVxX1kIgY1N6qpJyny+rqUFNZgQEjLcs8Fvqw4MVhobTeeUS94b9b0NImOU/L5aFl4lRo/fztvh8tn88o6qpyKTj+wfAUMg/PcTXofv4CgQCr122Er6+fYzZFsArOf9BGoLAyZSnjefnIyTOxYNNuRPQfYudd2Qbp6RzaGnMA8PT2wRufrmfsrGYsS9yZz9SnvbkcovBoil2adwaZO3dYfL9B3VmIDWJZY2sdRpmfQztgRT1QDI0FdffWRhMshGoS/dmx7GgaRQBdlaaiPNqf//SZL5BQuxtABN3F2JO+C4cz99GuJa9KRVLyYrfp0S7JPoBdKxbRijmL5wO/6R+hqUuY0Xu4qqgnr95OmyR34vBBnDNyzMLEExFsh4t6S3UpZEfTKHZNUDBaho2w/4ba7qNHKG2inKZZgbp99Al8roSmWUGb7NddFELmnbsJJOTuQhQVXMP7i9+gXZu2MMWtGsZkp2/Dwe3raNc8hGEImrUWHv5ClNZp0TeIDS6H+V6uGH735PIQLR6BS8d+QmuLYcLj9StSi5PkAOChABZkzUCN5X1mOoyqXIq671fSiqJq8tPQGhkda0+0wUKwmpvAvmU4oEbbrID6biW8+ox00M46TsMv29FSRS2NXL1+I3qHuc+RQmeGCLoLseyDtymd3wD3G4WasSEFJ/enM67zwgfB+68PVrUWKGsA+gWxwDHigLqiqPsGBME3oCttklzhxQsQx4+xKEkOsL+oa5oVkB9LR8MvqZQkLABoHToC6ug+9tmMmWh6h4NTUU5pF9t6VzcTwRWT5JqK8iA/9m+Kffqzz2Hq0884YEcEW0AE3UU4nLmPMjUNAMbNnOM29eVKhQw7l83HldPGB420VpcaJCo1tgA35TpRN4YrinpIRAyUchnKCy4b2JsaFSgrKjRrMltbHgpg4Y9a3c/NVrRUl6LxzD40ZG2BqlxKe426byxaRlu+f3ugiYjSJcm16SinKpeC2yvWpWaqq+urUff9SsoXqu6iEHy0ai24VuzER3AspFOci0A3NU0UHo03Nu120I6si1Ihw/b3kxnL0trC5vERMGO5QZvSmEAWJkSaTgs5l3sUGVs20a45a0e51PdeRUm+hGJvT3tYAGhWAxlXNahpNP72V5Vfgao8H63VpdA0KaBuqDEYbcrm8eHRplUsk4A/iKZHKFQTp1q1rau1YddUg7f7G6qdx0fQnK0u00nu7u5ltP8mq9Z9jtHxYx2wI4KtIB66C3A4cx8OZ+6n2F/6aDN8A4IcsCPrUllSgO0fJKPmz1La9cRJU1BcaCj0WnULWqsK4TPwiXu2O0rdf0P93M9T7/doAgolpyCvu2Ngryy9jgChECEWnoF6sIGYriyU1lM9dVW5FLKcNDT8nIrGSz9DVS6912hF2+YMXKtu0Yn8A39Moe4bC9XEqXatN28PWj4fWj8/SotYrboFqusXDX73nBWmBj6Jk6bg+dmk5tzdIILuAhzLPUoZtuLN94V4XJLLC7p+9Kms9g5lTSAQYPmqT/H87FcglzVAmv+7wbpGUQdNswK88EH3bH/KAH8eC8E+7iXqnlweevXpT5skd+VsHmKHDrM4Sa6tqKvKpajbtwaKM/vQereC9sy7I2i5PLQ8mYRW8TCr3teWaIOFYMvqwb5t+EVFo6hz+k5yLdWlqNu3hmKPjI7BxyTU7pYQQXcBigqv4cxvhm0aW1tUKDz/G8TjkuDJdc03piT7AHYum08RKEAn5ptT0zB4iO4Dc/iIUTiWewR37xgKf0tVETyEYfDoer+G9o9aLUQCFrp4uZeo+wYEITg0DL8f+5my9vupExj2+HiLk+Q82EBvr0acTN+GuiM7oVHUWWu799ByeVCLh6HlySSH1pq3F02PXrr2sI2GmYSt1aVOK+qaZgXufv027Zey9Zu2kZpzN4UIugsQ138ALkjyKBnuTQoZis7/hodHj3c5UT95IB3/2fJ/tGuR0THYnJqG3uERBvbhI0bhcOY+St961fWL8OozEmyv+2eaxbVa9PZnQcB1L1EX9tSF1ksuG56n6zPfhz8x3qL7VZZeR/ra1bhdcMFqewR0teWa3uFoHTYSLY8nQtMz1OlD7Ix4eOgy369KadvDqsql4IbGGvz+OZra71fey8p/kAWL3sXoBHJu7q6QpDgXQS6TYW7yLMpZMqDLhF6w8TsH7Kp9GJuWFhkdgy2paYyzmC9IzmJeMnXIjKcwDF1fXGtg43GAZ2M5CPAyvSdXS5T7ZsVblHI2wLIkucrS60hN+RBKBXPDFK2vH9QRkdD07AWtrx+th81qbgbrdvW96x3RvtUesCvKwftxD+O6YOR0eMfGOzwDXn5yL+Sn9lLsg8RDsDk1zSrPKCy4Cq4nF2ERD1nlfgTrQDx0F4HL4+Hx8RNw+tQJSthZVnvH6TxJOpQKGfZtXcUo5omTpuDjVWsZxRzAvVBh25wCujNNtVbnqUcHssEz0ngGcD1PPVo8gjFJzpvPR69o4z38lQoFUlM+hKyOPsSu6REK1eOJaBk9Bpre4dAGBDI3f/HwgNbPXyfkPDO+PbkoWj9/aHqGgvNHMcVTB3Q5CI2SQ2guzoOmsQ6qcim0zY3QKOr/ShbU2tyLV+bnQJaTRrF3F4VgS2pah8/NVapmzHt1NlK3bsSPGbshCglBVIxz9RHozBAP3cUoKriGecmzIJfLKWvO6EnqMVWWljhpCpYuX2n2/eYlz8IFyTmK3Uc8EX5jDD14Px7wTF8OBGYcL7uSp157qxKfL5iBJgX1d2FOyseIiI1jfO22lA9RIs2n2L18fDBh/pv4UaWGsrXVqvt1F9g11eD+uIdSo24u3NBYcHvFWt2bb6kuRe3uZbTd+NLSv7eK8K5bvQI/ZhiWyh7KPo4uAZYlZBJsA/HQXYyuQUEYPmIUsn86TDlLriopgBff1+lGpVaWFODblYsYxXxJygq8PGeuRfccHT8W+77fQ/kZtFQVUaZjNat1nnpkABs8E8e4ruSpewt0/9aSI5mUtStn8zBg5Ch403jVJw5l4swvP1HsorAwvLZ8BSKjohDm64u8W9WUawj3p7Oxa+9SusmZg7qh5p43r26ogacwrMOeuz4Jjk7Ml6SswPARlk3po+Psmd/w2aerKPbxE5IQ2LVrh+9P6DhE0F2QrkFBiHt4AG1teuH5UxBFRN9LnnI0+rI0utGnAoEAb3/wv5iQRD/lyhhcHo/xZ9BcfJaS+d6sBor+EnUvNxL1gG4h8OL7ovD8KQN7a0sLSqRSygx1pUKBXZ+uRmuLYfZzQHAw5v7fmnulb129vBDo5YXLd+7a/i/hgmj5fKj7xkHr5wf2n+W0IXhzaK0uRVN+Ltj8Lu0e0appVqB29zLaHgCJk6ZY/GWZDoVCjjfnJkPRJt8i/KFIvPJax+9PsA5E0F0UUUgPiEJCcJxm8lZ5QT5GTZnpgF0ZIj2dg28ZpqXpy9I64jkY+xmorl8EN3wQOPwu921qoOCuFuFd2PDxNH5vVxL1Xn36M85Ql9fVIXbo/brv3H0/ovAiNaN9zvIVCBQahn97CvhE1E2gDRaidcgwaIOFgAeHUq9u1j3ULWguPguWlw+4IdSxuaaoP7iBthNcZHQMPtu8zeL70bFm5XJcukDtVPj5F18S79yJIILuwkTF9IHA15dSow5oET+NmgluTyTZB/Ddmg9oa8y7i0KwfvM2q5zp6e/RNklOq25B87WTlHK2Fg1w7Y4WvdyspC3i4SGMSXIA8NBf5+l03vm4ac9g4MjHaO9LRN08tAGBUEdEQT1QDHXvcGgioqANCISmRyi0fn4AzwtaHo9Sy/4gqusXwYsaavAl1BT1WVvQdK3t+/9+tYg1msec+e0ktmxYS7HPemUOHh8/ocP3J1gPIugujvTy7xRBjxaPwIDRltUjW5OD29fiv1/TJ5ZFRsdg+9ffWbWxxeAhj6CqsoK2PWxLuRRefUeC5XE/7KzW6kS9u4AFf557iLonl4cBfxuPM1nfU75ElVyRIiQsHDUVFZDkGg6+8fLxwcw3FxttSENE3QL0Gf8BgdD0DIWmZ6hO6PvGQd1/INQDxdAEBILVUE8r7qrSi/COizf4fWWiPmsLlPnUQUYCgQCr122yynvsdk01Fr6ejOamJgP7Q5FRWPHJ+g7fn2BdiKC7ON+m7UDZX16YnvinZyEkwnjZkq3I2JCCM1nf0649Fj8Gn6zbZLQsrb2MThiLosJrlJ+FRlGnazzTRtQ1WuDqbS2EPiwEeruPqEeLR+BM1g+UtcJLF1BbU4PaGsNEt+GPjzcIyTPRU8DH3aZmVBipWSeYgYcHtMFCqPsPBAu62vYH0TYr4BHYw+R5ukJyEIoz+2jXUtPSrVZK9ua8ZJTfKKXYN2wloXZnxPRoKoJTQ3d+HNF/iN33oVTIsHHBs0ZrzFev22gTMdezNGUlImnqr42V8xwo0uByjenKTWMNWyTZB5CxIcXi/dqCkIgY2tI6pUJBW6Y2alKS2ff+Z0wUhnVzvdatzkrLsBFQ96XOVlfm5xp9nTI/B7KjabRrS1JWWE3M/7VpA/J/v0Sxv/LaXERGWX7WT7A9RNBdmGO5Ryg2UXg0ArqF2HUfpmrMX0p+3aIa8/Yi8PXFltQ0i0U9+7oGx8o1Ju/vKqIuHjcZ4rGmhTogOBgBFvZWJ6JuXVoeo86DV5VLDUbUPogyPwf1WVto15akrGhXxQgdeadPYVfalxR7bP8BmP3q/1jlGQTrQwTdhTmW43jvvLKkAGtemmSixvx1u+1H4OuLpSkrIRAIKGvGRF1SpUVmkfuI+rQ3l0MUbtyLMtZ4xhhE1K2HlseDpkcoxU5XgmYvMa+prsaH7y2i2IOChfhkPX1uDME5IILuwlw8T+2UJh5nfgi1o5RcPoft7ycbKUvbabUPGUuIiumDzalpFot6ca0W313RoMlEgzRXEfXk1dsRIBQxrlvqnT/IP2Oi8DA5Q7UKdILeUm2YC2JMzKc/+5zV3mfNzc149615kMuo7+lVazcgIDDQKs8h2AYXHX9EKCq4hqpKw2lKXnyB3ZLhjAmXvsbckT2e9aJO1yZXL+oBM5aDzTPs0HVTrkW6VI1pfTnwNZJoPCReFyqlaxOrzyNwdJtYb74vnl+6Hqnvv0rbHjYkrGPNh/4ZE4k7vzehQm6dRLlIf3/0FPDRQ8BH4F/lVj0FfHg/MKXtblMz7vyVcV1cX48/5QoU1ze4XZtabdP9DHjZ0TQoJAdpr0ucNAVvLH7Pas/98N23UHD1CsW++P0P0S/uYas9h2AbSJa7i5L9cxalXG3A6PGIfTTB5s82Nfr06+9+dIp5y8ba5DJlvwO6rnJXb2sR6me8Vt0Vst99A4LgG9CVdjJbWVEhxPFjLJ6hrseTzYY4OAhXa+sgU1HnbpvC28MDg4ODkBgWill9YzCsuxB9AwPQU8BHVy8vdPXygiebTXmNfi2qiz/EwmA8HtoTkf66CW+umIXPUjWDU3TNwKbv916ftQWNl36mfZ2l8w9Msf2LTcjcR62QeOLJiXht/kKrPYdgO4iguyj/2vQZZT76qCkzbe6hZ2xIQW7GTto1U6NPHYEpUW+6dgrc0FhKM49WDXD1jhbd+Sx08Wq/qCvlMsSIR1jnL9NOQiJioJTLUF5w2cDe1Kho1wz1B2mPqEd18Udi716Y1TcGDwd1RTcfn3Y/X09XLy88HNQVw7p1Q2Nrq0sJO+fGdXDKSg1s3NBYKKW5tHXmgPXFPPfIL1j/CfV+UTF9sGHrdqs9h2BbiKC7IHKZDJ+u+phin/bmcnhyO94Zig6lQobdaz7ApWPUoR6A7gPms83brNKZytp0DQrCuPGJOC85Sxk9q21WoPnaSXACexj0fgf+qlW/o4WAy0I3fvtEvbzgMgKEIof1BdATIx6BypIC1PxZamCX1dWhrqbGrFp0JswRdW8PD4wSdcesvjGI7xGCngLbjBH19vDAw0Fd0UPAx9XaOrRqTCc6OhrOjVJKPbqqXIrW6lLa619Kfh0LrRhmv3ZFijdef4Vi7xoUjK1ffg0fH9uOfCVYDyLoLkj2z1mU+nNReDRGTfmnTZ6nL0sruUxNwgN0STnvLFlmk2dbC19fP8Z58lp1C5qunQTbiw9Pml7aJXVatGiA3v7tE/Urp3OdQtSNzVAPEAo7dKbuyWaj318jND3YbAR6eaGHgA+xMAiJvXvhmaiH0DcwwOA83JZ08/GBODgYRfX17ToOsCeckiKwb1WZde2SlBV4ZubzVnt2xZ/lmPfqLDQ3N1HWvvjyG/Ts1dtqzyLYHiLoLsie9F2UNqfx02bbZGxqZUkBtn+QTPHs9CxJWYHnZ1O/3TsjXB6PUdQBoPn6RagbauAVNZSyViUHbjcCMV1dV9Q9uTz06tMfl479RGkPe+VsHmKHDrs3ba09eHt4oG9gAIZ1F2JYdyHEwmBEdfFHVy+vjm693fsRBwfhZNUtp/bUPSV5Zo1htWZpGgDU19dhzuzncOfObcrax5+sw5Chw632LIJ9IGVrLsjxX+nqz8VWf8690ae36EefWvsDxh4Yaz4D6MqD7ny9uN1lbcZK2jI2pDB20rMXIRExmPbmctq11JQPoXShs2dz8PbwwIKH4+wWGWgPrNvG584LBAKsWve5Vd9rKlUzFv7Pq7h1kxoZmP3KaxgzznGzIAjth3joLkZRwTXs/e5bA1uAUITEWQus+hxJ9gHsXvOBzUafOhIuj4ennn6GdqALYDxZTq4Ciu5qERnIBo9Df39n99SFPXWh9ZLLhuMwW1taUHjxAmWGujOgVChQXlwESW4OSq5IARYLXj58s/bpx+XCk83G1do6O+zUMtg11fC4dJ5xXf9eGzyEGjXqCO8snIdLF6nP/VvCWLzt5MdnBGaIoLsY+37YSxkVGjs8warlavoac7rRp5HRMVi9bpNDa8ytxeiEsYzz1I0ly5lT1ubsoh7Rf4jZM9QdyZWzechK34WMLZsgyT2KEmk+SqT5kOQeRe6+H1F1oxTBPXqYPCoI8/NFcX0D7jY122nnpmE11IP78yGwGumjIpHRMdicmobe4RFWfe7qj5fh6C/U5NbY/gNIRruLQwTdxdi4/hPcbXPmNe6fc+55XR0lY0MKstO30a7py9KcocbcWkTF9MHgIY/gWM4RSlmbPllO3VADbq9Yg3p1c8ranF7UjcxQ9+bz0YvhWMLWlEjzkZ2xBxlbN+Fc7lHUVFQwXltTUYEzv/xkVlJfII+HvFvGw9v2glNSDO6BH8BuoD87108m7BoUZNXnrl31Mfb/mEGx9wzthS2paeA5YZUKwXxYWq3W9KgpglNQVVmBp5OoZ1urDzKH7CzB2Blv4qQpWLj4PaeqMbcmRQXXsCJlCW0IHgA4/kJ0mfoOPIVhlLVx4Wz0D2ZOljuXe5S2oxyg6yYnHje5XXu2BrW3KvH5ghm0neTmpHzc7n7vllJZeh2S3BxI885QRryay7S58+918GNi0+/5KKqrb9f9rQGruRmex3PAuUqdfKfnpeTXbTL/YOO6T7AnfRfF7t8lAF99uwfdRfYd6kSwPsRDdyGO5x6lhIf7DY/HgNEdS2BRKmT4YvEsFEpO0a7rm1g4Y425tegaFITHx0+A9PIlSsMeQBeCV176GWDpmn48SEmdFi1q5rI2Z/bUvQW+6NWnPyRHMilrV87mIXrgoA5lvhujtqYakl9zkP7ZOuTu+xFlRYVoYgg/m4M5mfo+Hh44X0PN6rYH7JpqcA/vB+fGddp1gUCA5as+xVNPP2P1Z+/YthXfpu2gXftixzcIs3JYn+AYiKC7EDtSt6Ks1PDDYFji0x0qV6u9VYmdy+YzTktbsOhdvL7gzXbf35Xg8niYkDQVclkDpPm/016jKpeiuTgPvPCBYHvdb7hRJQeqFUAfhrI2Zxb1gG4h8OL7ovC84Re61pYWlBcVWjVJTqlQ4PdTJ5GxZROy/r0LhRcvmC3iovBoDJ/wNCL6D4FSLqMcFej2rDJ6/t/Nxxu5FVV2L2PzuHQe3EP7jJ6Xr163yerJbwCwK+1LbP+CPkK0Yet2PDxwsNWfSXAMJOTuQoyPf5QyBendHQfbPf9cX5ZGl8kOWL/u1ZW4IDmL996aTxnsoofN48N3zCx4xxkmI3YXsPBUNBteDFVSzhx+z/hsGa2nHjt0GF54u2OdySS5OZCePQNp3hmLXhcgFKHf8ASIxyVRvvBkp2+jzfdISfsW3nzm7mb2DLuza6rheTyH0gnuQWx5nLXzy3/hyy820659/sWXpNbczSCC7iLQnZ8HCEV496tD7bqf9HQOvv8sxWhZmjtksncEuUyGFSlLaLPg9XBDY+GfOBcc//ujSP15MDqtzZlF/fP5MyiZ7wAwbtozeHz6DIvudeVsHqR5ZyA9e8ai+nYvvgCxwxMw0ozZBHT7NXX2n3WjHFk3yszeT3vxyDsFzzP0x1jAX70clq/E6PixNnn++jX/hx/2pNOubU7diUHiR2zyXILjcN5uCwQD6M51A4Tt88ydffSpsyDw9cXqdRuxJ30Xvtq2hdZbV5VLUZP6OgQjp8NHPBFsHh/1zcC/89V4KoZN2wPe2OhV/b+Lo0Q9efV2fPLSREqSXHbGHoSEhZssZ9Mnt0lyj1rcpEY8Ngn9Ho1H7HDzSzBjH02gCPrdmmo48kSYXVEObvZ/wWpgjgLoQuwbbVYxsuyDt5H9UxbFzuPxsG7Tv4iYuylE0F0EgYAajmtqpA8HG4MpTAk457Q0Z+CZmc9jdPwYvLdoAWMWvPzkXijzc+GbMAteUUOhbAX2XtVgchSbNlnOWUXdm++L5FXbsXHBs5S1jK2baMvDamuqIcnNwbmcoxZnqPcbHo/Y4fHo92gCvPmW/97RdTF0FKzmZnjknYLHRYnR62yVxa7nvUULaKNKXl5eWLfpXxg4eIjNnk1wLCTk7kKM/9twipdoSYjWWFnaIPEQrF63iYi5CXZs24qvUrcavaZtGN5YWZuzht+ZojgBwUK88el63TW/5kCScxSVpfRZ20yIwqMhHjcZscPj253/AeiqMzYueJYi6o4IuXtcOg+PMyfBamZuXBMZHYOlKSttFv1SKOR49815uCChDlHy8eHj8399iX6x1p/3QHAeiKC7ECuWLUHWwf0Uu6kPfqVChl0rFjFOS7P2bGV3p6jgGt5btID2GORBHgzDi7uzMLoX/egEZxV1piS5gGChxZ64Prlt1JSZHRJxPUy/014+Plj+9b+NvvbfBUU4Y6UGM5ySYngezzEaXgds75VXVVZg4euv4s9y6hcVf/8u2LjtK0RGUScJEtwLIuguRFHBNcya+TTF7s33xaurUmkTiPSjT5nK0mz9QePOGDtb18PxF0IwYjq84+IR0YWFKdGuJeqp772KknzjIWQmvPgCiMdOps1Q7wjGfqdHTZiEpNkvG319St65DreAZVeUw/PMKaPZ64Au8rUkZaVNuytevnQRby98HTKarnNBwUJsTt2JUDIGtVNABN3F2JO+CxvXfUKx04l6ZUkBdq1cxHjO2JnL0qyFXCbDhrWraSMnD6IX9vDhCYxlbc4o6kqFDBvnz0BttXnzuvUZ6pYmt5lL7a1K7Fq5iFbMvXx88N7WVKMla8X19dh4iblLmylYDfW6Tm8lxUav6y4KwRuL37VZBruen7MOYvlS+pLCbt1F+GLHN+jWXWTTPRCcByLoLghT6N2b7wvxuCT0ezQBV37LgSQ7k7EszZblMp2RC5Kz2LB2NWPSnB6OvxDBf5uOV54ZS1vW5oyiXllSgNT3X6VtD6uno8lt5u6DqW+Cl48P5ixfYbKfe3u9c3ZFOTwuSkwKOQBMf/Y5vDxnrs3zUbZsWIv0XWm0a/0HDMTqdZvQJcA2Xf4IzgkRdBeFSdRNQcrSbMvhzH34fO1qo2F4APDwF2LctGeQMJ7ae9wZRZ0uSU6f3CYel2QzEddjDTFvz9m5uaF1wD7hdQC4c+c2lry9EJcvXaRdf3JiEj78aJVN90BwToiguyhymQxzk2eZ9AgfxNa1rwQdcpkMO7Ztocytp8O3qxDDx46BOD4BAcH3m9M4o6iXXD6HkssSePF9O5yhbgnG+iYEBAfjhXfet7qYc65K4XFJArYZyX+DxEPw8py5dqntviA5h6Xvvom62lra9UXvLcXfp1nWAIjgPhBBd2HkMhneWzSftkylLaQszf5UVVZgx7atZkdShsTrhF1fcuWMom5vjIm5KCwMc1JWGD0zV7aq8e+CIvx+h9r3vS2shnpwrknhcVVqMmsdsN85uZ60L7cx9mT39++CVes+x4BBYrvsheCcEEF3A3Zs24q96d/QhnkFAgGmz3yBZLI7EEuFPSBYiFGTkiD+WwKkZ890WlE/uH0tTuynb11qjpjn3arGD39ch7K11ehzOCXF4FzNN+t8HNAJ+ctzXrdbQml9XS2WL30PZ347Sbse07cfVq/bCGG37nbZD8F5IYLuRhzLPYKigvsh+KiYGAwWDyVeuZMgl8mwJ30X45cvOobEj4EWWkhyc2jX3VXUjTVBEscnYPrcBYyvzbtVjcM3yowmv7Ea6uFx6Tw4JcVmeeOALso1IWmqXStDfr94HkvefhN379JHGJ54ciKWraRWvRA6J0TQCQQ70x5hN4Y7ibpSIcP3n6VAepr+C4wxMTcl5KyGenCu/wHO1Xyzzsb12POM/EG+/GIzdn75L8b1d5Ysw5S/T7PjjgjODhF0AsFByGUyHMrch73pu0x2nTOFO4i6qSZISbNewqiJSYavaVUjt6ISuRWVtKF1dk01ONekYFeUWyTiAoEAj8WPxctzXrd7Eumd2zV4f/FCSC9fol0PFgqxZsMWRMf0teu+CM4PEXQCwQm4IDmLQwf2tasUUY8ri7qxhjEAMG3u/HsDbQBmIWc1N+vEu6LconC6nu6iEEyf+TwmJk11yFHVf77fg39t3gC5jFqeBwAjR8fjfz9aRY7RCLQQQScQnAi91344c59FJYl6XFHUTdWYT5+7wGBsa9aN8ntC/qCAW+qF69F74xMnT3XYWNHSkj+wMmUprkgv0657eXvjjUXvYvJT1NbPBIIeIugEgpNSVHANe9J34XjuEYvO2l1J1C1pGFNcX49vso9Advs22Ler2y3geh6LH4PR8WMwOn6swzxelaoZqVs24btv0xiviY7pi5WffoaQHj3ttzGCS0IEnUBwcuQyGY7lHsGx3KO0c67pcAVRN1ZjDgBJs19Gk0KBytLruPHnn5BXVnT4mXoRHyR+xOENlo7lHsGGT1fj1k3mPvnPz3oFr81faMddEVwZIugEggtRVVmBY7lHzQrJO7OomxJza+IMnviDVFVW4NP/+4ixrhwAwsIjkLJyDWnRTLAIIugEgotijrg7o6gbaxhjDSKjYzA6fiwGD3nEYWfiTJgqRQOAV/5nHma/8pqddkRwJ4igEwhugLFhPc4k6sYaxrSXQeIhiIrug0FDHnHaRkpHs3/Clg3rjJYn9h8wEEtSVpLZ5YR2QzOVmUAguBpLl68EAFpR14e2HSnqphrGmEtkdAxEIT0wSPwIomP6OJ0H3pbfL57H5g3rGGvKAcDXzw+vzVuIqf+YbsedEdwR4qETCG6EMU89eVUqIvoPsfOOTDeMoSMyOga+vr4YJB4KUUgIoqL7uNR5cvmNUmz+fB1O/Gr8C8w/npmJ5NcXQCAQ2GlnBHeGeOgEghthzFMvuSyxu6Cbahgz/dnnIPD1Q1RMDHx9/RAV3ccpQ+bmcutmFb7a/gUO7vvR6HWDhwzF4vc/RG8TY18JBEsggk4guBlLl6/E8V+PUrqNefHtK5RKhQypHySj9hb13FggEGDJ8pV2Gz1qa/4sL8PXO1JxOHOf0eu6dRdh7huLMPaJJ+20M0Jnggg6geBmHM7cRyPmAojHJTG8wjaUXD7HKOabU9NcKoTORNmNUuzYtgXZP2UZvc7Hh48XXn4Vz896xU47I3RGiKATCG7GV6lfUGzisZPhbWcPnYnV6ze5vJhLzp5Bxu5/m9XoZ9KUpzBn3kIEBna1w84InRki6ASCG3E4cx+qaDqqjZoy0+57iR2egAChCLXVhp3Qzp876/TZ6UwcOvAf7P72G5T8UWTy2keGPYr5b72DhyKj7LAzAoEIOoHgVtB750kI6BbigN3oSuWy07cZ2LIO7sfLc153yH7aQ1VlBfb/kIED//ke9fV1Jq9/LH4MXnwpGX1j4+ywOwLhPkTQCQQ3gck7HzdzjgN2o2PklJk4sf/faFLcHy5TVVmBw5n7MCFpqsP2ZYrbNdXI/ikLR37+L+MEtLYkTpqCF156Fb16h9l2cwQCA0TQCQQ3wdm8cwDw5vsidngCJEcyDex7v/vW6QT9zu0aZP+UhZwjP+PypYtmvcbHh4+kqX/HjOdmQditm413SCAYhwg6geAGXJCcdTrv/ME9tBX0ooJruCBx/Fl6Q0M9jvz8Xxz5OQsXJOfMfl1kdAz+Pm0Gnpw4GTwez4Y7JBDMhwg6geAG7Ni2lWJztHeuJ6BbCPoNj8eV07kG9j3puxwm6Icz9+GnwwdxLu+0Ra8b8/h4THv2OTw8YJCNdkYgtB8i6ASCi3NBchYXJGcpdmfwzvWMmjKTIujHc4+iqrLCrnPJ62pr8dpLz6G87IbZr4np0w8TJ0/F44kT4efnb8PdEQgdgwg6geDi0HnnEXFip/DO9UT0HwJReDSqrhca2Hds23qvXa09+DZth1liHhQsxBOJEzFx8lMIC4+ww84IhI5DBJ1AcGEYvfN/Oo93rmfUlJn3Jr/p0beo7Uj/9qrKChQXFuCC5CwKC64BAKbPfI62raxGozZ6rzHjxiPpqX9g6PAR7d4PgeAoiKATCC4Mk3du7SEslSUFqKuugig8ut2ev74m/cFGM3KZDIcy9+GZmc9bfL/Dmfvw+bpPKG1uAd0XnbT07ykd6SZN/Tv2/5iBpqame7aHBw7G+AmTMD5xErx9fCzeB4HgLBBBJxBcFH2meFus7Z0f3L4WJ/an37//zDkYOWWmxa1kK0sKDOrR9RzPPWKxoF+QnMXKlKVGrzmWe5Qi6BEPReGHg78g98gvkMtlGPv4kxD1sN8ZPoFgS4igEwguyp70XRSbtb3zjA0pkGQfMLBlp2/Dyf3pmJS8GOKx5g18qSwpwPb3k6FUUL3p7iLLBfX8OeoXmbZExcTQ2rsEBGDq09MtfiaB4OywHb0BAoFgOVWVFbQzz63lnSsVMmxc8CxFzB9cz/hsGTYueBYll43Xb0uyDzCKuUAgaFcb2MFDmMvdBAIBpj9Lf4ZOILgzLK1Wq3X0JggEgmWsWLaEIuii8Gi8sWl3h++tVMiw/f1kVJYUmP0a8bjJGPdsMuV8XZJ9gJIIpycyOgZbUtPanRB3OHPfvRyCqJg+iIrug8FDHnF4sxoCwVEQQScQXIyqygo8nTSeYp+2MAXicZM7dG9joXFTePN9MXLKzHvn623P3h+ko2JOIBCoEEEnEFwMOu88QCjCu18d6tB9jYm5QCDA6vWbcP7cWXyVSs2sN9hLtxCEhMdAejqHdj1x0hQsXPweEXMCwcoQQScQXAhbeeeS7AM4uH0do5hvTk27lzFeVVmBz9d9guO5Ry1+TuKkKXZtJEMgdCZIUhyB4ELspclsDxCKOizmGRtSaMU8MjoGad/9YFD+JQrpgdXrNmJz6k50F5lfk/5S8utEzAkEG0I8dALBRZDLZPhH0hOURiod8c6z07chO30b7Zq559x70nfhq21bIJdTa8z1LElZ4XTjUgkEd+P/AQAA///t3Xl8VNXB//HvTPZMFrInbEEgQKtsIoorImhZBYuiaKk7tfSnbcUqFfto64at1mrt41IR1IcHFEEExAW1KuIGEVAJO4QACdlJMlmYZGZ+f+RhZJg1ISGZ6+f9euX1Yu6559yToHxz7j33HEboQIh47X9f9QjzkxmdL/3HAz7DfNzEyUFPWrv62hlatnqtpk3/hUdZXFycHn3iKcIcOAUYoQMhwNfofOKtd+mCyde2qK362hq98eQDfiettfbW+K4d2/XUE/O0KXejMrO6at4TT3us1gagfbBSHBACvI3Ooy1xGjYmuJXajgn0jvlNM2e1aqGXY3L6D9AzLyxsdX0ArUegA52ctaZGry/2nAx3weTrWrSeemVxoV59eLbPMOc5NxDaCHSgk/M1Oj+/BbfaA71jPvfPD7NUKhDiCHSgkzvZ0XmgMD/+HXMAoYtZ7kAntmbVipManed+sFJP3zHdxy5nXQlzwEAYoQOdmLdtQoMdnbfnxigAOh8CHejEDhcd8jgWzB7k3vYxP4YwB4yJW+5AiDlxi9IT+QvzcRMn6+XFywhzwIAIdCDE+FoQpr62Ri/8cabfMGctdcC4CHSgE8vp5zlh7cP/fcFjktuxBWP2frfRaztzH3iIMAcMjqVfgU5s147tuuHaKz2OJ2V01bDRk9R70FnK++I/yv1gldeZ7BILxgA/FgQ60MnNmX1Hq/Yej4uL07y//1NDhw1vh14B6GwIdKCTs9bUaOrES/1uT3oiFowBfnx4hg50cnHx8XrmhYWKi4sL6vy+/foT5sCPECN0IERYa2r0j8fn6Z3Vb3ktj4uL07Rrf6mrr53Ba2nAjxCBDoQYa02NPv34QxUVFrqO5fTvrzOHnU2QAz9iBDoAAAbAM3QAAAyAQAcAwAAIdAAADIBABwDAAAh0AAAMgEAHAMAACHQAAAyAQAcAwAAIdAAADIBABwDAAAh0AAAMgEAHAMAACHQAAAyAQAcAwAAIdAAADIBABwDAAAh0AAAMgEAHAMAACHQAAAyAQAcAwAAIdAAADIBABwDAAAh0AAAMgEAHAMAACHQAAAyAQEdocjo7ugcA0KmEd3QHYGwNhwpVt2v3SbXhsNnUWFEhW3mFGg4clHVrnnrO+pXSxv2sjXoJAKGPQEe7Co+zKCIpSSVvr1HhosVy2h1t0zAjdABwQ6CjXYUnJip+8EDFDx6oiKQk5T/1jNfzEoefpdg+vX2201hRoaqNuWqsqGyvrgJASCPQccqkjb3MZ6CnTxynrKuv8lvfYbNp39+e1KFXF7VH9wAgpBHoOGXM0dEnVz8yUn3m3qO6ffvaqEfGV/ru+0q9dLRMYWEd3RUP9ro6VX29UXV79qrJapU5IkLm6CiZY2IVmZqsyPR0RSR1kclkljkqSpHpaW3eB0fDUTVWVqg+v0C1O3aq2w0z2vwawKlCoCPkdL1uuhz19a7PTrtDB+e/pCNfblD1ps1+63Y59xwlDBmsHjNv9nues6lJBxe8ovqCApV/9LEcdfV+z4/MzFDGpAnqdv0vFGaxeG/T7tCBf89Xyeo1Onqo0L3QbFZUVqYcDQ2ylZXLZDL5vFZ0dk+lTxyvHrfc6LdPjoaj2nX/g2qqrlHWtKl+zz28fIWKl6+Qdes2t+Mxp/VS8oXnq8t556pqw0ZVfLJOdbv3+G2ry3kjlDB4kM+fscNmU8G/ntOhRUtkt1r9tuVq89xzNGjBvz2Ol6xcrSNfbVDpu+9LjpbNz3A6HHIcPer6HBYXR6AjpJmcTmYX4dQ4WnRYX426zGtZzp//FPCW+zH1+wtk3ZqntPFj3QucTm2/a45K3n7Ha73uN/5Sve+5q0V9lqTGyiPaftccVa7/3Oc5Qxa/ooShQ4Jqr3b7DuVO+eF7je3TWz996gnF9u0jSTq44GXtfewJn/WHv7tKMb2yA16ncNFi7X7wUUX36K7h764KOEpvqqrS5yMuck047H7jL9X77tnScb9cOO12fX/rr1X5+Zde28i+fZayf3Obz2s0Hjmi726cKeu27a5j4YmJyvz5FFn65ygqI0MOm021O3ao+K3VqtuzV5KUMXmS+j/2sM92S1au1va77/VaFtOzh8ITEz2OOx0O2YpLZCsrk9Qc6Odv9P13DHR2jNARcqKyMhUeF+dZYDIpa/rVPgM98yr/o1RfIpK66PRnn9bma2bImrfN6zkOm61VbUdlZmjQyy8qMjXVdaz7jdfryFcbVfHxJ17rmCIiAjfscOjQy81zDRoOHFTxipXKnHqF3yphsbEymU1y2p2y5PRV7z/c6RbmkmQKC1PWNdO8B7rZrO43/tL3BZxO5d3+e7cwT71sjPo/9rDCYmLcTk0eeaG633yT9j3xDx18aaEiM9L99j190gTtfuhRNVXXeJRl3z5L6ZMm+KxbtSFXO+79kxorj/i9BtDZsbAMQo45MlIRKcley8LjvQR9EGXBXLP/vId8hmn+U/8Kuq19Tz7t+nPOA39yC/Njul//C5/1y9d+GPAaZR98pPqCAtfnA8/PD/jK4JENua5z0idNkMze/3kIj4/3etwcHq6w2Fif7Ze++76qNuS6Pkd06aIBf33UI8yPMYWZ1fvuO5V03ghFZWT47btMJoVZWvf3mzh8mAa++JzMkUH8ogR0YgQ6ECRLvxz1uPUmr2XV32xSyeo1Aduo+GSdKj5ZJ6k5NJMvvsjreV1GnK2Ynj28lh1eviLgdQ4ueMXtc31BgUpWrvLft+PuCKSOvTTgNVqq+K3Vbp/jB54uc3RUwHoZUy5XVIAR+smKye6p5JHe/y6AUEGgAy2Q/euZrmfdJ9r3+JNyNBz1WiY1T7Tb88hjkqSIlGT1mXuP7wuZTMq4YrLXotqdu1Tz/VafVau3fOt1cmDBc//2O3Hs2C8algH9FdOzp+++tZJ1a57b56OHi4OqFz94kGL75bR5f07kbx0EIBQQ6AgZVRu/8fkM+1QxRUSo30MPeL0dffRwsQqe95yJfczBl15W/f7m2+B9752jiC5d/F4r4+dTZArz/r/o4Tfe9H2d+Qu9Hq/fX6DiVW97L8vf7+pb6qWj/farVRwO2UpL3Q7V7tqtgwteDlg1Jrunz7sVbSltPEsJI7QR6AgZdXv3ydlk7+huKGHIYHW79hqvZQcXvKyjRUUex22lpc0jZEkpo0YqbcJYj3NOFJWRrqTzz/NaVrrmHa8T8RoOFar8w498tulrlF7+0X9cf04b6/1NhJNiNnt9Vr73sSe0/e571VRV1fbXbKHorl07ugvASSHQERKcjY0qXLS4o7vh0mv2bxXdzTMAHA1HtWfe4x7H9/7177LX1Sk8Pk45f/6voK+TeeXPvR5vqq5R2XtrPY4fWvCK38lv9fvyVbLmXY/jFR83326P7dO73W49+3rVrmTlam0YP1nFK/w/428vJz4KAEIVgY5Or273Hn17wy2q3bGzo7viEhYT4zOYy95b6zabu3rTZteEudP+MLtFK56ljB7lc0b/iZPjmqprXMeiu3b1OSO/4NkX3Da3sVutqvpmk6Tm18jaS/rlvl8dayyv0I45c7Vlxk2ud89PFV+PIYBQQ6CjU9j/zHPaOGGKx9cX543UxolXqCp3U0d30UPSBecpY8okr2V7Hnms+da206ndD82TnE51GXF2wBXbTmQKC1PG5RO9lh35aoMaCn9Yca5oyeuy19VJknrcdqvPenV79qp0zXuuzxWffiZnU5MkKe1nbT+7/ZisaVcqukd3v+dUbdio3ClXad/fn/Y7wbCtOJuaVPnpZ+1+HeBUINDRKdjKy1Wfn+/x1dl3V+vzx7sVmZLicdy6bbuKli5T0dJlsm7Nax7R/+X+Vl3D1213ORwqXv6WpOYV3I49kohMS1PmFZer5223yhTufe2o/c8+7xqll3/8qaTmyWeWAf1b1cdghFksOuPZfyo8wft77Mc4Gxt14IUXtXHiFJ+L67QFe12ddtz7X6rby94AMAZWikOnkHP/XK9LvzbVWFX19Qbtmfc3NRw42AE98y88MVF97pujbb//g0fZ8TvLZd8xq9UztWP79FbCkMGq3rzFo6z4zbeU/ZvbVLJqjY4Wl0iSus2YLlNEhKJ7dFf6xPEqXrHSo17d7j0qfW+t0i4bo8rP1ktqp9ntJ4jt20dD31isvDtmq3b7Dr/nNhw8pO9vu11pE8aq31/u97lGfiAH5i9UyUr3d+DtdXWybtvhuqMBGAEjdHRq4fFxShk9SmcuW9JpZyGnjfuZUkaP8jjeWFGpxopKxQ86Q92vP7lNP3wt29pwqFCVX3ylgwubF5IJs1iUNf2HGfg9Z830uYZ7wX8/r+rNW1x3QVLbY3a7FzE9e2ro64vUY+bNPu8gHK/07Xf1zZXT1Vhe0arr1W7foYp1692+qnI3EeYwHAIdISE8IUHd/CyH2tH6zPEcoR/T+w+zfS6jGqy0CWN9Lqu6+8FHXKPdrGlT3Za4jenZvDObN7U7dzU/35cU3a2r4s84/aT62BLmyEiddudvdeayJYofPDDg+fX78pX3u9kt3lFNkvo/9rAu3LrJ7ev83C808MXnZMnp25ruA50SgY6QEduJ//ENT0zwXRbgmXEwwmJjfb4fXr8vX1LzojfdbvDcHKXnr2f6XKDm2EI9Kafgdrs3lv79NHTxq+oz956At9SrNuSq/KOPW3wNk9ksU1iY21eYxaKkC87T4P9Z4HUOBBCKCHSEjKQRZyv+jJ92dDc6TOZVPibH/Z/0CWO9rnke0ytbaeP8L2TTnrPbAzKb1W3GdTrr7RVKGTXS76knrgd/ssITE0/ZowagvRHoCB1m80nfug5lCUOH+F70xWRSj1u8bxwjST1n/crnzy4qI10JQwa3RRf9aigslLOx0Wd5VGaGTn/2n+o/72GFedseV1J9fn6b9ytx2NA2bxPoCD/efx2BAPY9/mRHd8FD5tQpXo8nX3SBz01jJCm292k+b9mnjLnEY9/z9rD7L4+qyVob8LyMKZM09PVFisrK8iiz17b9RLa08e53L8re/6BTvlEBBEKgA17YrVbVFxzo6G54yJgy2esKcP5G58dk+xilt8va7SewlZWpct06r+vcexPb+zT95B9/8/hFw9eqeW2pbO2HARfAATojAh3w4sBLLyv2tF4d3Q0PEclJSjlhD/WEwYOUOHxYwLqxfft4vGsemZKixGFntmkfvanakCun3aGKdeuDrpMweJCiu3dzO2bp36+tu+amZst3aiwvb9drAO2FQAdOYN2ap4MvLlD8oMCvU3WEE99J737LDUHXzf7NbW6j3pTRo07JvISGA813Owr/Z7Hs9fVB1wuPd39DoD3XmrfX1mr7nLmKO/3HO/ESoY1AB45jzdum72bOksNmU/yQQR3dHa+SL7pAUZkZkqTI9DSljgn+lTNLvxyljrnE9TnlEv+zytuKvb5BUvM2sjvn3u+2OYwv9QUH3DbkSRw+TMkXXdAu/Ws8ckTfz5yl+n35ih94RrtcA2hvBDpOmbr/e1/am4aDh9rkGi0Z/R3vaHGJ9v39aW2+ZoYayysU3bVri95Pbqqx+i4LYiJYi5jNypjcvClM6qVjWjyh7dgo3RQersThZ7X48k1W79+ro6nJ58//+GffpWveVd4ds/3ugW4rK1PeHXfKabdLkqKystT/kQf99ste2/Kfs722VkWvLVXu5VNdGwB11jszQCCs5Y5TwmGzaf8zz/osP7x0ubKmTzvp5V1LVq3xWZb327tkPmFCmbOpUbbSMo8JcHEtfN+96LWlPssOL13W5q9GZUy9QgUvzFfyyAtbXNcyoL9SLrlY9fn7W74+utOpw8tWeC9zOFS05HV1v/F6j6LUS8eoaMlS1e3eI0kqW/uBKj//QukTxqnLOWcrKitD5qgo2UpLdeTrXB1+Y7maqqslSQlnDtWAxx/1+99G2doPXeefqOD5F3X4jTfdvw2HQ42VlarP3+/aaU6SIlNTXXc/gFBjcjqDuPcFtJJ1a57K3v9Ape9/4FrRzJfw+DilXz5JXUac3aKNQpx2hw7OX6Cq3G9U8cm6k+xxs9Pu+r163HJjwPMOvDBf1Zs2q/w//ncF63LO2epy7jnqNuPaVm8ycqJvr79FOQ/cp5jTerW4rjVvu/b+9XENWvhiUOc3HCpU8ZtvqeKTdar57nvfJ5pMSh1zieIHnqEeM292K3I2Nalo6XIdXrpM1m3bA952TxgyWFnTpzVvA+vjLkTJqrd15OsNKl6xyu877sFKHnmhznj+XyfdDtARCHQgRFVv+VZxPxkgc2Rkq+pXbcgNanZ8e2iqrlb1lu9Uvy9fTdXVarJaZY6IUHhCgmJ6ZSth6GBFpqZ2SN+AUEWgAwBgAEyKAwDAAAh0AAAMgEAHAMAACHQAAAyAQAcAwAAIdAAADIBABwDAAAh0AAAMgEAHAMAACHQAAAyAQAcAwAAIdAAADIBABwDAAAh0AAAMgEAHAMAACHQAAAyAQAcAwAAIdAAADIBABwDAAAh0AAAMgEAHAMAACHQAAAyAQAcAwAAIdAAADIBABwDAAMI7ugOAUVRv3qKmI1Wuz/a6OkVlZijhzKEd2CsAPxaM0IE2Ysnpq533PaCYXtmK6ZUtS78cNVXXdEhfHDZbq+o5Gxt1tKhIjoaj/s+z2wOeA+DUItCBNhJmscgcE+0K9Ni+fZR88UWu8uI339JXoy5T7a7dHnVrd+3Wdzffpu9u+pVbUO7/13P67ubbVLtzl0cdp92hklVva/2wc2XN2+7W1qGFr7o+28rK9PWYcar4ZJ3rc94dd2r77HvUWFHpOu/IV1+r4Ll/y5q3XXsemaejxSWuspKVq7Vx4hUqXLREhYuWqOC/n1fFus+C+t5sJaXa+9jj+vKCS2QrLXW73obLJqpy/eeS0+n7BwsgKAQ6cIqkjB6lyNRUWXL6epRZcvqq/2MPqT5/v+y1ta7j1rxtGvDXR2Tpl+NRxxRmVvqkCUoYMliNR34I5tK339HhZW/+cKLDqcThZyl55IWSpMjUVMUPPEMJZw5VRHKS67RDC19V9u2zlDJ6lPr+6V6Fx1lcZckXX6TwuDh1ve4adb3uGmXfPktJ554T1PcWmZ6m3nfPVnSP7rJu2+E6fuTzL9X3gfuUdP55kskU6McHIAACHWgnDYcKW3R+ZGqqetx2i/Kf+qck6fDyFUobP1YRKcl+62VOnaKyd9e6PtvKyxWekKAjX30tSSr78D9K+9mlAa9vjo3R4eUrJEmmiAiFWSx+zw+LiwvYpovJpH4P3q/8J5+W0+5Q/b582WvrlHTeiODbAOAXgQ60IafNpqLXlqrotaXa9/iTLa6fNe1K1RccUFXuJtVs/lbpE8YFrJN66WhVfbNJcjhU8+33ih84UJlXXqHDry+TJFVv2qykC88P2E7fe+eoeNmb2vPQPDntdo9ye0ODanfsVO2OnSpb+0GLv7djjyCKXluqA/MXqtfv/l+L2wDgG4EOtCFTZKSyrr5KWVdfpb73/bFVbeTcf5/ybv+dsu+YFdw1IyKUNOIcVeV+o7K1Hyht7GVKnzhelV98qaPFJQqPs8gUFhawnYiUZA165SWZIsK1ZcZNaqqudj/Bbpe9rk72ujo5G5ta860pe9avVLhosVIuubhlI3wAARHoQDsJdKvcl5jTeinMYlFkamrQdTKv+rlK33lPjvoGhSfEK8xiUcrFI7Xzj/cp+eKRQbXhtDtkCgtT73vuUvqEsSp47kW38jCLRQlDhyhh6BCljR/bkm/JxRQR4fNZO4CTQ6ADHciat11yOE66HUv/frJu26GEs850HcucNlU1W7cp6fxzg2qj/KOPXH9OuvB8ORsb/Z5vzdvmt+9t9b0BCA4LywBtpOLjT3S0sEgV69Yr2csz64pPP1NjRYUKFy2RJDUcPCRzTLTifjrA/bx162UrLZM1b5vifvqToK+fPnG8Eo8L9IQhg9XtF9M9brc3lleoesu3CouJUdqEsYro0kVyOnX4jTflbGxSWFycKj9brx633uTWd1t5uXvfo6Nc/Qv2e6svKFD9/v2qXP+5sq6+itntQBsyOZ28AAoYgbOxUaaICLdjDptN5sjIoNuwlZXJbq1VdI8eMoVxAw8IJQQ6AAAGwK/gAAAYAIEOAIABEOgAABgAgQ4AgAEQ6AAAGACBDgCAARDoAAAYAIEOAIABEOgAABgAgQ4AgAEQ6AAAGACBDgCAARDoAAAYAIEOAIABEOgAABgAgQ4AgAEQ6AAAGACBDgCAARDoAAAYAIEOAIABEOgAABgAgQ4AgAEQ6AAAGACBDgCAARDoAAAYAIEOAIABEOgAABgAgQ4AgAEQ6AAAGACBDgCAARDoAAAYAIEOAIABEOgAABgAgQ4AgAEQ6AAAGACBDgCAARDoAAAYAIEOAIABEOgAABgAgQ4AgAEQ6AAAGACBDgCAARDoAAAYAIEOAIABEOgAABgAgQ4AgAEQ6AAAGACBDgCAARDoAAAYAIEOAIABEOgAABgAgQ4AgAH8f06Lqh47m9aNAAAAAElFTkSuQmCC;" vertex="1" parent="1">
          <mxGeometry x="280" y="300" width="420" height="420" as="geometry" />
        </mxCell>
        <mxCell id="2HksthL0buNQXl4Dgqd0-28" value="" style="rounded=1;whiteSpace=wrap;html=1;" vertex="1" parent="1">
          <mxGeometry x="747.5" y="362.5" width="220" height="65" as="geometry" />
        </mxCell>
        <mxCell id="2HksthL0buNQXl4Dgqd0-27" value="&lt;b&gt;&lt;font style=&quot;font-size: 24px;&quot;&gt;Book Tickets&lt;/font&gt;&lt;/b&gt;" style="text;html=1;align=center;verticalAlign=middle;whiteSpace=wrap;rounded=0;" vertex="1" parent="1">
          <mxGeometry x="740" y="370" width="235" height="50" as="geometry" />
        </mxCell>
        <mxCell id="2HksthL0buNQXl4Dgqd0-30" value="" style="rounded=1;whiteSpace=wrap;html=1;fillColor=#FFFFFF;" vertex="1" parent="1">
          <mxGeometry x="60" y="810" width="940" height="280" as="geometry" />
        </mxCell>
        <mxCell id="2HksthL0buNQXl4Dgqd0-35" value="&lt;font style=&quot;font-size: 24px;&quot;&gt;&lt;b style=&quot;&quot;&gt;Project&lt;/b&gt;&lt;/font&gt;&lt;div&gt;&lt;font size=&quot;3&quot; style=&quot;&quot;&gt;&lt;b&gt;&lt;br&gt;&lt;/b&gt;&lt;/font&gt;&lt;/div&gt;&lt;div&gt;&lt;font style=&quot;font-size: 18px;&quot;&gt;&lt;b&gt;&lt;br&gt;&lt;/b&gt;&lt;/font&gt;&lt;/div&gt;" style="text;html=1;align=center;verticalAlign=middle;whiteSpace=wrap;rounded=0;" vertex="1" parent="1">
          <mxGeometry x="80" y="840" width="190" height="120" as="geometry" />
        </mxCell>
        <mxCell id="2HksthL0buNQXl4Dgqd0-36" value="&lt;font style=&quot;font-size: 18px;&quot;&gt;&lt;b&gt;Changelog&lt;/b&gt;&lt;/font&gt;" style="text;html=1;align=center;verticalAlign=middle;whiteSpace=wrap;rounded=0;" vertex="1" parent="1">
          <mxGeometry x="120" y="900" width="110" height="50" as="geometry" />
        </mxCell>
        <mxCell id="2HksthL0buNQXl4Dgqd0-37" value="&lt;font style=&quot;font-size: 18px;&quot;&gt;&lt;b&gt;Status&lt;/b&gt;&lt;/font&gt;" style="text;html=1;align=center;verticalAlign=middle;whiteSpace=wrap;rounded=0;" vertex="1" parent="1">
          <mxGeometry x="121.5" y="950" width="81" height="40" as="geometry" />
        </mxCell>
        <mxCell id="2HksthL0buNQXl4Dgqd0-38" value="&lt;b&gt;&lt;font style=&quot;font-size: 18px;&quot;&gt;License&lt;/font&gt;&lt;/b&gt;" style="text;html=1;align=center;verticalAlign=middle;whiteSpace=wrap;rounded=0;" vertex="1" parent="1">
          <mxGeometry x="130" y="990" width="80" height="40" as="geometry" />
        </mxCell>
        <mxCell id="2HksthL0buNQXl4Dgqd0-39" value="&lt;font style=&quot;font-size: 24px;&quot;&gt;&lt;b style=&quot;&quot;&gt;Community&lt;/b&gt;&lt;/font&gt;" style="text;html=1;align=center;verticalAlign=middle;whiteSpace=wrap;rounded=0;" vertex="1" parent="1">
          <mxGeometry x="310" y="862" width="60" height="30" as="geometry" />
        </mxCell>
        <mxCell id="2HksthL0buNQXl4Dgqd0-40" value="&lt;font style=&quot;font-size: 18px;&quot;&gt;&lt;b&gt;Github&lt;/b&gt;&lt;/font&gt;" style="text;html=1;align=center;verticalAlign=middle;whiteSpace=wrap;rounded=0;" vertex="1" parent="1">
          <mxGeometry x="290" y="910" width="60" height="30" as="geometry" />
        </mxCell>
        <mxCell id="2HksthL0buNQXl4Dgqd0-41" value="&lt;font style=&quot;font-size: 18px;&quot;&gt;&lt;b&gt;Issues&lt;/b&gt;&lt;/font&gt;" style="text;html=1;align=center;verticalAlign=middle;whiteSpace=wrap;rounded=0;" vertex="1" parent="1">
          <mxGeometry x="280" y="950" width="80" height="40" as="geometry" />
        </mxCell>
        <mxCell id="2HksthL0buNQXl4Dgqd0-42" value="&lt;span style=&quot;font-size: 18px;&quot;&gt;&lt;b&gt;Twitter&lt;/b&gt;&lt;/span&gt;" style="text;html=1;align=center;verticalAlign=middle;whiteSpace=wrap;rounded=0;" vertex="1" parent="1">
          <mxGeometry x="280" y="990" width="80" height="40" as="geometry" />
        </mxCell>
        <mxCell id="2HksthL0buNQXl4Dgqd0-44" value="&lt;b style=&quot;&quot;&gt;&lt;font style=&quot;font-size: 24px;&quot;&gt;Help&lt;/font&gt;&lt;/b&gt;" style="text;html=1;align=center;verticalAlign=middle;whiteSpace=wrap;rounded=0;" vertex="1" parent="1">
          <mxGeometry x="495" y="860" width="80" height="40" as="geometry" />
        </mxCell>
        <mxCell id="2HksthL0buNQXl4Dgqd0-46" value="&lt;b style=&quot;&quot;&gt;&lt;font style=&quot;font-size: 18px;&quot;&gt;Support&lt;/font&gt;&lt;/b&gt;" style="text;html=1;align=center;verticalAlign=middle;whiteSpace=wrap;rounded=0;" vertex="1" parent="1">
          <mxGeometry x="488.75" y="905" width="82.5" height="40" as="geometry" />
        </mxCell>
        <mxCell id="2HksthL0buNQXl4Dgqd0-47" value="&lt;span style=&quot;font-size: 18px;&quot;&gt;&lt;b&gt;Troubleshooting&lt;/b&gt;&lt;/span&gt;" style="text;html=1;align=center;verticalAlign=middle;whiteSpace=wrap;rounded=0;" vertex="1" parent="1">
          <mxGeometry x="488.75" y="950" width="82.5" height="40" as="geometry" />
        </mxCell>
        <mxCell id="2HksthL0buNQXl4Dgqd0-48" value="&lt;span style=&quot;font-size: 18px;&quot;&gt;&lt;b&gt;Contact Us&lt;/b&gt;&lt;/span&gt;" style="text;html=1;align=center;verticalAlign=middle;whiteSpace=wrap;rounded=0;" vertex="1" parent="1">
          <mxGeometry x="465" y="990" width="140" height="40" as="geometry" />
        </mxCell>
        <mxCell id="2HksthL0buNQXl4Dgqd0-49" value="&lt;span style=&quot;font-size: 24px;&quot;&gt;&lt;b&gt;Others&lt;/b&gt;&lt;/span&gt;" style="text;html=1;align=center;verticalAlign=middle;whiteSpace=wrap;rounded=0;" vertex="1" parent="1">
          <mxGeometry x="707.5" y="857" width="80" height="40" as="geometry" />
        </mxCell>
        <mxCell id="2HksthL0buNQXl4Dgqd0-50" value="&lt;span style=&quot;font-size: 18px;&quot;&gt;&lt;b&gt;Terms &amp;amp; Conditions&lt;/b&gt;&lt;/span&gt;" style="text;html=1;align=center;verticalAlign=middle;whiteSpace=wrap;rounded=0;" vertex="1" parent="1">
          <mxGeometry x="660" y="905" width="220" height="40" as="geometry" />
        </mxCell>
        <mxCell id="2HksthL0buNQXl4Dgqd0-51" value="&lt;span style=&quot;font-size: 18px;&quot;&gt;&lt;b&gt;Privacy Policy&lt;/b&gt;&lt;/span&gt;" style="text;html=1;align=center;verticalAlign=middle;whiteSpace=wrap;rounded=0;" vertex="1" parent="1">
          <mxGeometry x="681.88" y="950" width="146.25" height="40" as="geometry" />
        </mxCell>
        <mxCell id="2HksthL0buNQXl4Dgqd0-52" value="" style="dashed=0;outlineConnect=0;html=1;align=center;labelPosition=center;verticalLabelPosition=bottom;verticalAlign=top;shape=mxgraph.webicons.facebook;fillColor=#6294E4;gradientColor=#1A2665" vertex="1" parent="1">
          <mxGeometry x="820" y="823" width="40" height="38" as="geometry" />
        </mxCell>
        <mxCell id="2HksthL0buNQXl4Dgqd0-53" value="" style="dashed=0;outlineConnect=0;html=1;align=center;labelPosition=center;verticalLabelPosition=bottom;verticalAlign=top;shape=mxgraph.webicons.instagram;gradientColor=#DFDEDE" vertex="1" parent="1">
          <mxGeometry x="865" y="820.5" width="45" height="43" as="geometry" />
        </mxCell>
        <mxCell id="2HksthL0buNQXl4Dgqd0-54" value="" style="dashed=0;outlineConnect=0;html=1;align=center;labelPosition=center;verticalLabelPosition=bottom;verticalAlign=top;shape=mxgraph.webicons.twitter;fillColor=#49EAF7;gradientColor=#137BD0" vertex="1" parent="1">
          <mxGeometry x="920" y="823.5" width="40" height="40" as="geometry" />
        </mxCell>
        <mxCell id="2HksthL0buNQXl4Dgqd0-57" value="" style="rounded=1;whiteSpace=wrap;html=1;" vertex="1" parent="1">
          <mxGeometry x="687.5" y="468" width="312.5" height="312" as="geometry" />
        </mxCell>
        <mxCell id="2HksthL0buNQXl4Dgqd0-60" value="" style="rounded=1;whiteSpace=wrap;html=1;" vertex="1" parent="1">
          <mxGeometry x="747.5" y="633" width="192.5" height="37" as="geometry" />
        </mxCell>
        <mxCell id="2HksthL0buNQXl4Dgqd0-59" value="&lt;span style=&quot;font-size: 18px;&quot;&gt;&lt;b&gt;Recent Trips&lt;/b&gt;&lt;/span&gt;" style="text;html=1;align=center;verticalAlign=middle;whiteSpace=wrap;rounded=0;" vertex="1" parent="1">
          <mxGeometry x="730" y="635" width="220" height="30" as="geometry" />
        </mxCell>
        <mxCell id="2HksthL0buNQXl4Dgqd0-62" value="" style="rounded=1;whiteSpace=wrap;html=1;" vertex="1" parent="1">
          <mxGeometry x="740" y="490" width="200" height="40" as="geometry" />
        </mxCell>
        <mxCell id="2HksthL0buNQXl4Dgqd0-58" value="&lt;b&gt;&lt;font style=&quot;font-size: 18px;&quot;&gt;Popular Destinations&lt;/font&gt;&lt;/b&gt;" style="text;html=1;align=center;verticalAlign=middle;whiteSpace=wrap;rounded=0;" vertex="1" parent="1">
          <mxGeometry x="730" y="495" width="220" height="30" as="geometry" />
        </mxCell>
      </root>
    </mxGraphModel>
  </diagram>
</mxfile>
